<?xml version="1.0" standalone="no"?>
<!DOCTYPE svg PUBLIC "-//W3C//DTD SVG 20010904//EN"
 "http://www.w3.org/TR/2001/REC-SVG-20010904/DTD/svg10.dtd">
<svg version="1.0" xmlns="http://www.w3.org/2000/svg"
 width="128.000000pt" height="128.000000pt" viewBox="0 0 128.000000 128.000000"
 preserveAspectRatio="xMidYMid meet">
<metadata>
Created by potrace 1.14, written by Peter Selinger 2001-2017
</metadata>
<g transform="translate(0.000000,128.000000) scale(0.100000,-0.100000)"
fill="#000000" stroke="none">
<path d="M137 1023 c-4 -3 -7 -145 -7 -314 0 -236 3 -308 13 -311 6 -3 96 -4
200 -4 l187 1 0 -52 0 -53 -46 0 c-38 0 -45 -3 -42 -17 3 -16 21 -18 203 -18
182 0 200 2 203 18 3 14 -4 17 -42 17 l-46 0 0 39 c0 69 -8 66 195 65 102 0
189 3 195 6 7 4 9 112 8 316 l-3 309 -506 3 c-278 1 -509 -1 -512 -5z m973
-285 l0 -238 -465 0 -465 0 0 238 0 237 465 0 465 1 0 -238z"/>
<path d="M615 732 c-27 -75 -49 -139 -50 -142 0 -10 56 -6 64 5 4 5 26 62 49
125 22 63 43 123 47 133 6 14 2 17 -26 17 l-34 0 -50 -138z"/>
<path d="M444 784 c-56 -28 -91 -51 -91 -60 0 -10 29 -29 76 -50 102 -47 116
-50 118 -25 2 22 -31 51 -57 51 -8 0 -23 7 -33 14 -17 13 -13 16 37 39 48 22
56 29 54 51 -1 14 -5 26 -8 25 -3 0 -46 -20 -96 -45z"/>
<path d="M744 804 c6 -32 0 -27 60 -53 55 -24 53 -30 -14 -54 -40 -15 -46 -21
-45 -46 0 -33 -6 -34 118 23 76 35 84 42 69 61 -7 10 -173 95 -185 95 -4 0 -5
-12 -3 -26z"/>
</g>
</svg>
