<svg width="34" height="34" viewBox="0 0 34 34" fill="none" xmlns="http://www.w3.org/2000/svg">
<path d="M28.8159 5.25771C28.8037 5.24469 28.8 5.22739 28.7873 5.21468C28.7746 5.20196 28.757 5.19809 28.7438 5.18579C25.6264 2.07838 21.4043 0.333496 17.0026 0.333496C12.601 0.333496 8.37882 2.07838 5.26138 5.18579C5.24826 5.19809 5.23076 5.20186 5.21794 5.21468C5.20513 5.22749 5.20156 5.24468 5.18936 5.25771C2.86646 7.59175 1.28702 10.5616 0.650388 13.7924C0.0137535 17.0233 0.348456 20.3703 1.61225 23.4111C2.87605 26.4519 5.0123 29.0501 7.75139 30.878C10.4905 32.7058 13.7096 33.6813 17.0026 33.6813C20.2956 33.6813 23.5147 32.7058 26.2538 30.878C28.9929 29.0501 31.1292 26.4519 32.393 23.4111C33.6568 20.3703 33.9915 17.0233 33.3548 13.7924C32.7182 10.5616 31.1388 7.59175 28.8159 5.25771ZM17.0025 30.3335C15.0063 30.3328 13.0358 29.8831 11.237 29.0176C9.43814 28.1521 7.85707 26.8929 6.61086 25.3335H13.303C13.7665 25.8574 14.3359 26.2769 14.9737 26.5643C15.6115 26.8516 16.303 27.0002 17.0025 27.0002C17.702 27.0002 18.3936 26.8516 19.0313 26.5643C19.6691 26.2769 20.2386 25.8574 20.7021 25.3335H27.3943C26.1481 26.893 24.567 28.1521 22.7681 29.0176C20.9693 29.8831 18.9988 30.3328 17.0025 30.3335ZM15.3359 22.0002C15.3359 21.6705 15.4336 21.3483 15.6167 21.0742C15.7999 20.8001 16.0602 20.5865 16.3647 20.4604C16.6693 20.3342 17.0044 20.3012 17.3277 20.3655C17.651 20.4298 17.948 20.5886 18.181 20.8216C18.4141 21.0547 18.5729 21.3517 18.6372 21.675C18.7015 21.9983 18.6685 22.3334 18.5423 22.638C18.4162 22.9425 18.2026 23.2028 17.9285 23.3859C17.6544 23.5691 17.3322 23.6668 17.0025 23.6668C16.5606 23.6664 16.137 23.4907 15.8245 23.1782C15.512 22.8657 15.3363 22.4421 15.3359 22.0002ZM29.3529 22.0036L29.3357 22.0002H22.0025C21.9994 20.9695 21.6772 19.9651 21.0804 19.1249C20.4836 18.2846 19.6413 17.6497 18.6692 17.3073V12.0002C18.6692 11.5581 18.4936 11.1342 18.181 10.8216C17.8685 10.5091 17.4446 10.3335 17.0025 10.3335C16.5605 10.3335 16.1366 10.5091 15.824 10.8216C15.5115 11.1342 15.3359 11.5581 15.3359 12.0002V17.3073C14.3638 17.6497 13.5215 18.2846 12.9246 19.1249C12.3278 19.9651 12.0057 20.9695 12.0025 22.0002H4.66936L4.65216 22.0036C4.21866 20.934 3.92711 19.8122 3.78496 18.6668H5.33586C5.77789 18.6668 6.20181 18.4912 6.51437 18.1787C6.82693 17.8661 7.00253 17.4422 7.00253 17.0002C7.00253 16.5581 6.82693 16.1342 6.51437 15.8216C6.20181 15.5091 5.77789 15.3335 5.33586 15.3335H3.78496C4.08278 12.9644 5.01511 10.7199 6.48343 8.83701L7.57463 9.92823C7.72938 10.083 7.91309 10.2057 8.11528 10.2895C8.31747 10.3732 8.53417 10.4163 8.75302 10.4163C8.97186 10.4163 9.18857 10.3732 9.39076 10.2895C9.59295 10.2057 9.77666 10.083 9.9314 9.92822C10.0862 9.77347 10.2089 9.58976 10.2927 9.38757C10.3764 9.18538 10.4195 8.96868 10.4195 8.74983C10.4195 8.53098 10.3764 8.31428 10.2926 8.11209C10.2089 7.9099 10.0861 7.72619 9.9314 7.57145L8.8403 6.48034C10.723 5.01251 12.9672 4.08044 15.3359 3.78259V5.33349C15.3359 5.77552 15.5115 6.19945 15.824 6.51201C16.1366 6.82457 16.5605 7.00016 17.0025 7.00016C17.4446 7.00016 17.8685 6.82457 18.181 6.51201C18.4936 6.19945 18.6692 5.77552 18.6692 5.33349V3.78259C21.0378 4.08044 23.282 5.01251 25.1648 6.48034L24.0737 7.57145C23.7611 7.88397 23.5856 8.30785 23.5856 8.74983C23.5856 9.19181 23.7611 9.61569 24.0737 9.92822C24.3862 10.2407 24.8101 10.4163 25.252 10.4163C25.694 10.4163 26.1179 10.2408 26.4304 9.92823L27.5216 8.83701C28.9899 10.7199 29.9223 12.9644 30.2201 15.3335H28.6692C28.2272 15.3335 27.8032 15.5091 27.4907 15.8216C27.1781 16.1342 27.0025 16.5581 27.0025 17.0002C27.0025 17.4422 27.1781 17.8661 27.4907 18.1787C27.8032 18.4912 28.2272 18.6668 28.6692 18.6668H30.2201C30.0779 19.8122 29.7864 20.934 29.3529 22.0036Z" fill="#FD15EE"/>
</svg>
