<svg width="35" height="34" viewBox="0 0 35 34" fill="none" xmlns="http://www.w3.org/2000/svg">
<path d="M9.00521 23.6668C8.67557 23.6668 8.35334 23.7646 8.07926 23.9477C7.80518 24.1308 7.59156 24.3911 7.46541 24.6957C7.33926 25.0002 7.30626 25.3353 7.37057 25.6586C7.43488 25.982 7.59361 26.2789 7.8267 26.512C8.05979 26.7451 8.35676 26.9038 8.68006 26.9681C9.00336 27.0324 9.33847 26.9994 9.64301 26.8733C9.94756 26.7472 10.2079 26.5335 10.391 26.2594C10.5741 25.9854 10.6719 25.6631 10.6719 25.3335C10.6719 24.8915 10.4963 24.4675 10.1837 24.155C9.87116 23.8424 9.44724 23.6668 9.00521 23.6668ZM29.1052 17.0002L31.1552 14.9502C32.0915 14.0127 32.6175 12.7418 32.6175 11.4168C32.6175 10.0918 32.0915 8.821 31.1552 7.8835L26.4385 3.1835C25.501 2.24716 24.2302 1.72123 22.9052 1.72123C21.5802 1.72123 20.3094 2.24716 19.3719 3.1835L17.3385 5.2335C17.3124 3.92482 16.774 2.67859 15.8392 1.76243C14.9043 0.846269 13.6475 0.333234 12.3385 0.333496H5.67188C4.34579 0.333496 3.07402 0.860281 2.13634 1.79796C1.19866 2.73564 0.671875 4.00741 0.671875 5.3335V28.6668C0.671875 29.9929 1.19866 31.2647 2.13634 32.2024C3.07402 33.14 4.34579 33.6668 5.67188 33.6668H29.0052C30.3313 33.6668 31.6031 33.14 32.5407 32.2024C33.4784 31.2647 34.0052 29.9929 34.0052 28.6668V22.0002C34.0055 20.6912 33.4924 19.4344 32.5763 18.4995C31.6601 17.5647 30.4139 17.0263 29.1052 17.0002ZM14.0052 28.6668C14.0052 29.1089 13.8296 29.5328 13.5171 29.8453C13.2045 30.1579 12.7806 30.3335 12.3385 30.3335H5.67188C5.22985 30.3335 4.80592 30.1579 4.49336 29.8453C4.1808 29.5328 4.00521 29.1089 4.00521 28.6668V5.3335C4.00521 4.89147 4.1808 4.46755 4.49336 4.15499C4.80592 3.84242 5.22985 3.66683 5.67188 3.66683H12.3385C12.7806 3.66683 13.2045 3.84242 13.5171 4.15499C13.8296 4.46755 14.0052 4.89147 14.0052 5.3335V28.6668ZM17.3385 9.9335L21.7385 5.5335C22.0508 5.22308 22.4732 5.04884 22.9135 5.04884C23.3539 5.04884 23.7763 5.22308 24.0885 5.5335L28.8052 10.3335C29.1156 10.6458 29.2899 11.0682 29.2899 11.5085C29.2899 11.9488 29.1156 12.3712 28.8052 12.6835L24.0052 17.4835L17.3385 24.0668V9.9335ZM30.6719 28.6668C30.6719 29.1089 30.4963 29.5328 30.1837 29.8453C29.8712 30.1579 29.4472 30.3335 29.0052 30.3335H17.0385C17.2095 29.8395 17.305 29.3226 17.3219 28.8002L25.7885 20.3335H29.0052C29.4472 20.3335 29.8712 20.5091 30.1837 20.8217C30.4963 21.1342 30.6719 21.5581 30.6719 22.0002V28.6668Z" fill="white"/>
</svg>
