<svg width="34" height="34" viewBox="0 0 34 34" fill="none" xmlns="http://www.w3.org/2000/svg">
<path d="M1.16993 11.7666L16.1699 20.4333C16.4233 20.5796 16.7107 20.6566 17.0033 20.6566C17.2958 20.6566 17.5832 20.5796 17.8366 20.4333L32.8366 11.7666C33.0885 11.6212 33.2979 11.4124 33.4441 11.1609C33.5903 10.9095 33.6682 10.6242 33.6699 10.3333C33.6711 10.0396 33.5946 9.75084 33.4483 9.49621C33.302 9.24158 33.0909 9.03014 32.8366 8.8833L17.8366 0.233301C17.5832 0.0870203 17.2958 0.0100098 17.0033 0.0100098C16.7107 0.0100098 16.4233 0.0870203 16.1699 0.233301L1.16993 8.8833C0.915591 9.03014 0.704568 9.24158 0.558229 9.49621C0.41189 9.75084 0.335433 10.0396 0.336599 10.3333C0.338354 10.6242 0.416197 10.9095 0.56239 11.1609C0.708583 11.4124 0.918036 11.6212 1.16993 11.7666ZM17.0033 3.66663L28.6699 10.3333L17.0033 17L5.3366 10.3333L17.0033 3.66663ZM31.1699 15.6166L17.0033 23.6666L2.8366 15.55C2.64638 15.4398 2.43623 15.3683 2.21827 15.3397C2.0003 15.311 1.77883 15.3258 1.56659 15.3831C1.35436 15.4404 1.15556 15.5392 0.98165 15.6736C0.807738 15.8081 0.662149 15.9757 0.553266 16.1666C0.335978 16.5493 0.278868 17.0024 0.394396 17.4271C0.509924 17.8517 0.788713 18.2134 1.16993 18.4333L16.1699 27.1C16.4233 27.2463 16.7107 27.3233 17.0033 27.3233C17.2958 27.3233 17.5832 27.2463 17.8366 27.1L32.8366 18.4333C33.2178 18.2134 33.4966 17.8517 33.6121 17.4271C33.7277 17.0024 33.6706 16.5493 33.4533 16.1666C33.3444 15.9757 33.1988 15.8081 33.0249 15.6736C32.851 15.5392 32.6522 15.4404 32.4399 15.3831C32.2277 15.3258 32.0062 15.311 31.7883 15.3397C31.5703 15.3683 31.3602 15.4398 31.1699 15.55V15.6166ZM31.1699 22.2833L17.0033 30.3333L2.8366 22.2166C2.64638 22.1064 2.43623 22.035 2.21827 22.0063C2.0003 21.9777 1.77883 21.9924 1.56659 22.0498C1.35436 22.1071 1.15556 22.2058 0.98165 22.3403C0.807738 22.4748 0.662149 22.6423 0.553266 22.8333C0.335978 23.216 0.278868 23.6691 0.394396 24.0937C0.509924 24.5184 0.788713 24.8801 1.16993 25.1L16.1699 33.7666C16.4233 33.9129 16.7107 33.9899 17.0033 33.9899C17.2958 33.9899 17.5832 33.9129 17.8366 33.7666L32.8366 25.1C33.2178 24.8801 33.4966 24.5184 33.6121 24.0937C33.7277 23.6691 33.6706 23.216 33.4533 22.8333C33.3444 22.6423 33.1988 22.4748 33.0249 22.3403C32.851 22.2058 32.6522 22.1071 32.4399 22.0498C32.2277 21.9924 32.0062 21.9777 31.7883 22.0063C31.5703 22.035 31.3602 22.1064 31.1699 22.2166V22.2833Z" fill="white"/>
</svg>
