<svg width="31" height="34" viewBox="0 0 31 34" fill="none" xmlns="http://www.w3.org/2000/svg">
<path d="M28.9818 0.33667C28.7629 0.336545 28.5461 0.37957 28.3438 0.463283C28.1416 0.546997 27.9578 0.669758 27.803 0.824547C27.6482 0.979336 27.5254 1.16312 27.4417 1.36538C27.358 1.56765 27.315 1.78443 27.3151 2.00334V3.06454C25.9094 4.80738 24.1329 6.21486 22.1147 7.18453C20.0965 8.15421 17.8875 8.66168 15.6484 8.67H5.64844C4.3228 8.67145 3.05187 9.1987 2.1145 10.1361C1.17713 11.0734 0.649884 12.3444 0.648438 13.67V17.0033C0.649884 18.329 1.17713 19.5999 2.1145 20.5373C3.05187 21.4746 4.3228 22.0019 5.64844 22.0033H6.45475L2.4502 31.3473C2.34138 31.6008 2.2972 31.8773 2.32162 32.152C2.34605 32.4267 2.43832 32.6911 2.59016 32.9213C2.74199 33.1516 2.94863 33.3405 3.19152 33.4712C3.43442 33.6019 3.70596 33.6702 3.98177 33.67H10.6484C10.9747 33.6702 11.2938 33.5745 11.5661 33.3948C11.8384 33.2151 12.0519 32.9593 12.18 32.6593L16.7196 22.0667C18.7707 22.2173 20.7691 22.7867 22.5915 23.7399C24.4138 24.693 26.0215 26.0097 27.3151 27.6085V28.67C27.3151 29.112 27.4907 29.536 27.8033 29.8485C28.1158 30.1611 28.5397 30.3367 28.9818 30.3367C29.4238 30.3367 29.8477 30.1611 30.1603 29.8485C30.4728 29.536 30.6484 29.112 30.6484 28.67V2.00334C30.6486 1.78443 30.6055 1.56765 30.5218 1.36538C30.4381 1.16311 30.3154 0.979332 30.1606 0.824542C30.0058 0.669753 29.822 0.546992 29.6197 0.463279C29.4175 0.379566 29.2007 0.336543 28.9818 0.33667ZM5.64844 18.67C5.2065 18.6697 4.78275 18.494 4.47025 18.1815C4.15776 17.869 3.98207 17.4453 3.98177 17.0033V13.67C3.98207 13.2281 4.15776 12.8043 4.47026 12.4918C4.78275 12.1793 5.2065 12.0036 5.64844 12.0033H7.3151V18.67H5.64844ZM9.5498 30.3367H6.50944L10.0804 22.0033H13.1208L9.5498 30.3367ZM27.3151 22.873C24.0289 20.1657 19.9062 18.6805 15.6484 18.6699H10.6484V12.0033H15.6484C19.9063 11.9924 24.0289 10.5068 27.3151 7.79935V22.873Z" fill="white"/>
</svg>
