<svg width="35" height="34" viewBox="0 0 35 34" fill="none" xmlns="http://www.w3.org/2000/svg">
<path d="M29.0052 0.333252H5.67188C4.34579 0.333252 3.07402 0.860036 2.13634 1.79772C1.19866 2.7354 0.671875 4.00717 0.671875 5.33325V28.6666C0.671875 29.9927 1.19866 31.2644 2.13634 32.2021C3.07402 33.1398 4.34579 33.6666 5.67188 33.6666H29.0052C30.3313 33.6666 31.6031 33.1398 32.5407 32.2021C33.4784 31.2644 34.0052 29.9927 34.0052 28.6666V5.33325C34.0052 4.00717 33.4784 2.7354 32.5407 1.79772C31.6031 0.860036 30.3313 0.333252 29.0052 0.333252ZM24.1552 3.66659L17.4885 10.3333H10.5219L17.1885 3.66659H24.1552ZM4.00521 5.33325C4.00521 4.89122 4.1808 4.4673 4.49336 4.15474C4.80592 3.84218 5.22985 3.66659 5.67188 3.66659H12.4885L5.82188 10.3333H4.00521V5.33325ZM30.6719 28.6666C30.6719 29.1086 30.4963 29.5325 30.1837 29.8451C29.8712 30.1577 29.4472 30.3333 29.0052 30.3333H5.67188C5.22985 30.3333 4.80592 30.1577 4.49336 29.8451C4.1808 29.5325 4.00521 29.1086 4.00521 28.6666V13.6666H30.6719V28.6666ZM30.6719 10.3333H22.1885L28.8552 3.66659H29.0052C29.4472 3.66659 29.8712 3.84218 30.1837 4.15474C30.4963 4.4673 30.6719 4.89122 30.6719 5.33325V10.3333Z" fill="white"/>
</svg>
