<svg width="34" height="34" viewBox="0 0 34 34" fill="none" xmlns="http://www.w3.org/2000/svg">
<path d="M28.3333 0.333496H5C3.67392 0.333496 2.40215 0.86028 1.46447 1.79796C0.526784 2.73564 0 4.00741 0 5.3335V28.6668C0 29.9929 0.526784 31.2647 1.46447 32.2024C2.40215 33.14 3.67392 33.6668 5 33.6668H28.3333C28.6075 33.663 28.8807 33.6351 29.15 33.5835L29.65 33.4668H29.7667H29.85L30.4667 33.2335L30.6833 33.1168C30.85 33.0168 31.0333 32.9335 31.2 32.8168C31.4225 32.6531 31.6341 32.4749 31.8333 32.2835L31.95 32.1335C32.1136 31.9677 32.2641 31.7894 32.4 31.6002L32.55 31.3835C32.6664 31.1979 32.7668 31.0028 32.85 30.8002C32.8957 30.7202 32.9348 30.6366 32.9667 30.5502C33.05 30.3502 33.1 30.1335 33.1667 29.9168V29.6668C33.2612 29.3412 33.3171 29.0055 33.3333 28.6668V5.3335C33.3333 4.00741 32.8066 2.73564 31.8689 1.79796C30.9312 0.86028 29.6594 0.333496 28.3333 0.333496ZM5 30.3335C4.55797 30.3335 4.13405 30.1579 3.82149 29.8453C3.50893 29.5328 3.33333 29.1089 3.33333 28.6668V21.4835L8.81667 15.9835C8.97161 15.8273 9.15594 15.7033 9.35904 15.6187C9.56214 15.5341 9.77998 15.4905 10 15.4905C10.22 15.4905 10.4379 15.5341 10.641 15.6187C10.8441 15.7033 11.0284 15.8273 11.1833 15.9835L25.5167 30.3335H5ZM30 28.6668C29.9984 28.8723 29.9589 29.0757 29.8833 29.2668C29.8452 29.3481 29.8007 29.4261 29.75 29.5002C29.7054 29.5707 29.6553 29.6376 29.6 29.7002L20.6833 20.7835L22.15 19.3168C22.3049 19.1606 22.4893 19.0366 22.6924 18.952C22.8955 18.8674 23.1133 18.8238 23.3333 18.8238C23.5534 18.8238 23.7712 18.8674 23.9743 18.952C24.1774 19.0366 24.3617 19.1606 24.5167 19.3168L30 24.8168V28.6668ZM30 20.1002L26.8667 17.0002C25.9129 16.0951 24.6482 15.5906 23.3333 15.5906C22.0185 15.5906 20.7538 16.0951 19.8 17.0002L18.3333 18.4668L13.5333 13.6668C12.5795 12.7618 11.3148 12.2573 10 12.2573C8.68517 12.2573 7.42046 12.7618 6.46667 13.6668L3.33333 16.7668V5.3335C3.33333 4.89147 3.50893 4.46755 3.82149 4.15499C4.13405 3.84242 4.55797 3.66683 5 3.66683H28.3333C28.7754 3.66683 29.1993 3.84242 29.5118 4.15499C29.8244 4.46755 30 4.89147 30 5.3335V20.1002ZM19.1667 7.00016C18.6722 7.00016 18.1889 7.14679 17.7777 7.42149C17.3666 7.69619 17.0462 8.08664 16.857 8.54345C16.6677 9.00027 16.6182 9.50294 16.7147 9.98789C16.8112 10.4728 17.0493 10.9183 17.3989 11.2679C17.7485 11.6176 18.194 11.8557 18.6789 11.9521C19.1639 12.0486 19.6666 11.9991 20.1234 11.8099C20.5802 11.6206 20.9706 11.3002 21.2453 10.8891C21.52 10.478 21.6667 9.99462 21.6667 9.50016C21.6667 8.83712 21.4033 8.20124 20.9344 7.7324C20.4656 7.26356 19.8297 7.00016 19.1667 7.00016Z" fill="white"/>
</svg>
