<svg version="1.1" id="Layer_1" xmlns="http://www.w3.org/2000/svg" xmlns:xlink="http://www.w3.org/1999/xlink" x="0px" y="0px"
	 width="100%" viewBox="0 0 96 96" enable-background="new 0 0 96 96" xml:space="preserve">
<path fill="#000000" opacity="000000" stroke="none" 
	d="
M97.000000,54.000000 
	C97.000000,68.298798 97.000000,82.597595 97.000000,96.948196 
	C65.111710,96.948196 33.223312,96.948196 1.000000,96.948196 
	C1.000000,82.980881 1.000000,68.959099 1.373041,54.479073 
	C14.614253,59.782600 27.482426,65.544373 40.632389,71.432320 
	C41.132896,58.392101 42.807419,61.145550 32.436783,56.698334 
	C26.507786,54.155815 20.766554,51.175434 13.960155,47.923706 
	C23.665010,43.511410 32.354576,39.560711 40.778404,35.730827 
	C40.778404,31.879131 40.778404,28.589983 40.778404,24.607597 
	C38.290264,25.655849 36.211983,26.499598 34.159279,27.401541 
	C23.102682,32.259720 12.052438,37.132355 1.000000,42.000000 
	C1.000000,28.367002 1.000000,14.734005 1.000000,1.050503 
	C32.887432,1.050503 64.774963,1.050503 97.000000,1.050503 
	C97.000000,14.352332 97.000000,27.707508 96.626938,41.520790 
	C83.388336,36.213806 70.522804,30.448717 57.194016,24.476042 
	C57.194016,28.758549 57.194016,32.207760 57.194016,35.647850 
	C65.951286,39.662857 74.581543,43.619633 84.290543,48.070984 
	C75.218262,52.132050 67.417274,55.470993 59.796787,59.180725 
	C58.473621,59.824860 57.426579,61.941826 57.116199,63.545750 
	C56.665470,65.874969 57.000629,68.356262 57.000629,71.611847 
	C62.702976,69.118690 67.587868,66.997253 72.460999,64.849121 
	C80.644608,61.241688 88.820732,57.617271 97.000000,54.000000 
z"/>
<path fill="#FD15EE" opacity="1.000000" stroke="none" 
	d="
M97.000000,53.539360 
	C88.820732,57.617271 80.644608,61.241688 72.460999,64.849121 
	C67.587868,66.997253 62.702976,69.118690 57.000629,71.611847 
	C57.000629,68.356262 56.665470,65.874969 57.116199,63.545750 
	C57.426579,61.941826 58.473621,59.824860 59.796787,59.180725 
	C67.417274,55.470993 75.218262,52.132050 84.290543,48.070984 
	C74.581543,43.619633 65.951286,39.662857 57.194016,35.647850 
	C57.194016,32.207760 57.194016,28.758549 57.194016,24.476042 
	C70.522804,30.448717 83.388336,36.213806 96.626938,41.989449 
	C97.000000,45.692909 97.000000,49.385818 97.000000,53.539360 
z"/>
<path fill="#FD15EE" opacity="1.000000" stroke="none" 
	d="
M1.000000,42.460636 
	C12.052438,37.132355 23.102682,32.259720 34.159279,27.401541 
	C36.211983,26.499598 38.290264,25.655849 40.778404,24.607597 
	C40.778404,28.589983 40.778404,31.879131 40.778404,35.730827 
	C32.354576,39.560711 23.665010,43.511410 13.960155,47.923706 
	C20.766554,51.175434 26.507786,54.155815 32.436783,56.698334 
	C42.807419,61.145550 41.132896,58.392101 40.632389,71.432320 
	C27.482426,65.544373 14.614253,59.782600 1.373041,54.010414 
	C1.000000,50.307091 1.000000,46.614182 1.000000,42.460636 
z"/>
</svg>