<svg version="1.1" id="Layer_1" xmlns="http://www.w3.org/2000/svg" xmlns:xlink="http://www.w3.org/1999/xlink" x="0px" y="0px"
	 width="100%" viewBox="0 0 2000 388" enable-background="new 0 0 2000 388" xml:space="preserve">
<path fill="#FD15EE" opacity="1.000000" stroke="none" 
	d="
M322.127441,319.044220 
	C322.091248,335.368866 322.055054,351.693512 322.380463,368.736023 
	C324.215271,369.628784 325.687866,369.949646 327.161743,369.955353 
	C338.793884,370.000458 350.427246,370.072754 362.057922,369.937622 
	C365.721954,369.895050 367.169189,371.274414 366.990967,374.920074 
	C366.796478,378.899078 366.934204,382.894318 366.463684,386.908752 
	C350.367004,386.956665 334.733765,386.986633 319.100525,386.998474 
	C266.047058,387.038696 212.993622,387.072510 159.940170,387.108765 
	C159.705643,381.533386 159.471115,375.958038 160.062866,370.162231 
	C173.808365,369.960510 186.727798,370.018646 199.646591,369.951477 
	C201.390305,369.942413 203.130753,369.303070 204.872711,368.955566 
	C204.908142,352.628052 204.943588,336.300537 204.607330,319.264526 
	C201.096054,318.370697 197.956497,318.023560 194.816956,318.023956 
	C135.528976,318.031982 76.240997,318.081116 16.953022,318.121643 
	C9.047141,317.702820 4.005161,312.390228 4.004617,304.397705 
	C3.998045,207.793335 4.038439,111.188896 3.907551,14.584703 
	C3.899539,8.671177 7.043041,5.153031 10.942548,1.337448 
	C179.020889,1.000000 347.041779,1.000000 515.531372,1.000000 
	C521.160767,4.760519 523.125366,9.643278 523.114014,16.190557 
	C522.948181,111.748314 522.960815,207.306503 523.060242,302.864441 
	C523.070312,312.541748 517.913818,317.731995 510.982208,318.026886 
	C449.210571,318.026245 388.295227,318.005463 327.379913,318.045807 
	C325.628845,318.046967 323.878235,318.696838 322.127441,319.044220 
M496.433868,265.239349 
	C496.622467,263.431885 496.975342,261.624451 496.975952,259.816925 
	C497.002075,184.174347 497.004395,108.531761 496.951630,32.889217 
	C496.950287,30.967896 496.299957,29.047026 495.026215,27.021076 
	C340.473236,27.021076 185.920227,27.021076 31.333605,27.021076 
	C31.333605,106.966400 31.333605,186.334351 31.333605,265.999786 
	C33.475601,265.999786 35.285877,265.999786 37.096157,265.999786 
	C188.381363,265.999786 339.666565,266.000153 490.951782,265.995056 
	C492.616241,265.994995 494.280670,265.923340 496.433868,265.239349 
z"/>
<path fill="#A630FD" opacity="1.000000" stroke="none" 
	d="
M1458.873901,187.038147 
	C1458.576538,185.321960 1458.030518,183.607101 1458.021362,181.889374 
	C1457.947998,168.066086 1457.983398,154.242264 1457.969849,140.418594 
	C1457.959473,129.807480 1452.456909,125.792389 1442.372437,129.038651 
	C1440.832642,129.534363 1439.329346,130.144073 1437.258911,131.215103 
	C1436.473145,133.359024 1436.036621,134.988480 1436.033325,136.618805 
	C1435.999268,153.448013 1436.035156,170.277374 1436.051636,187.106689 
	C1436.051636,187.106689 1436.041992,187.041672 1435.597900,187.036652 
	C1424.827271,187.035049 1414.500610,187.038452 1404.173950,187.041840 
	C1404.115967,175.386078 1403.685791,163.716949 1404.102661,152.078186 
	C1404.537598,139.938660 1402.754272,128.096527 1401.031006,116.180000 
	C1400.058350,109.455399 1405.082764,103.988739 1411.553711,104.004066 
	C1418.214478,104.019836 1424.875122,104.060585 1431.535767,104.112289 
	C1431.836914,104.114616 1432.136353,104.332848 1432.766724,104.579857 
	C1432.909546,106.834534 1433.061646,109.233124 1433.275024,112.599792 
	C1444.338745,102.691170 1456.640747,99.642960 1470.216064,103.221230 
	C1475.913574,104.723007 1481.312012,107.334274 1484.712524,112.897820 
	C1487.964355,110.550659 1491.265381,108.220398 1494.510864,105.815163 
	C1502.398193,99.969727 1526.124023,99.716049 1535.388794,108.994446 
	C1540.220703,113.833534 1543.380127,119.901520 1543.917114,126.793922 
	C1544.597412,135.528214 1544.507690,144.320160 1545.063354,153.067337 
	C1545.416016,158.619583 1545.733887,164.297943 1547.163574,169.625656 
	C1548.844604,175.890854 1547.088257,181.213516 1543.928223,186.844269 
	C1533.065552,187.035934 1522.986938,187.043365 1512.908325,187.050781 
	C1512.605591,185.335983 1512.048828,183.622482 1512.040161,181.906189 
	C1511.968750,167.918900 1512.029541,153.931000 1511.986084,139.943497 
	C1511.966675,133.709961 1509.336548,129.354599 1505.018433,128.081177 
	C1497.049805,125.731186 1491.078735,130.146545 1491.025513,138.650620 
	C1490.926392,154.469284 1490.974609,170.288849 1490.436279,186.565674 
	C1479.565430,187.028244 1469.219604,187.033203 1458.873901,187.038147 
z"/>
<path fill="#A730FD" opacity="1.000000" stroke="none" 
	d="
M1301.591553,103.036026 
	C1304.156494,103.858521 1306.302734,104.656898 1308.728516,105.559235 
	C1308.241821,97.800117 1307.491577,90.197403 1307.374390,82.584938 
	C1307.281128,76.524399 1307.811646,70.435951 1308.457764,64.401894 
	C1308.555908,63.484505 1310.767334,62.135841 1312.027466,62.106411 
	C1320.686157,61.904221 1329.354126,62.119331 1338.014038,61.947464 
	C1342.077148,61.866825 1342.041382,64.288017 1342.038086,67.166260 
	C1342.004761,97.154800 1341.981934,127.143494 1342.065186,157.131836 
	C1342.075195,160.730789 1341.998169,164.606079 1343.237305,167.868759 
	C1345.926392,174.948914 1343.825073,181.242813 1341.377563,187.993988 
	C1332.114868,187.993988 1322.797729,188.125748 1313.494141,187.832291 
	C1312.289917,187.794312 1310.718994,185.740463 1310.113281,184.288589 
	C1309.532959,182.897842 1309.987915,181.075073 1309.987915,178.410706 
	C1306.762573,180.901917 1304.272217,182.858398 1301.747803,184.769623 
	C1290.569214,193.232437 1269.803467,189.217178 1261.322510,177.649582 
	C1253.629028,167.156006 1251.752808,155.299362 1252.746704,142.395386 
	C1253.440430,133.387543 1254.658081,124.836273 1259.450439,117.108826 
	C1265.285156,107.700760 1273.753662,102.383232 1284.888306,102.083954 
	C1290.304321,101.938385 1295.744019,102.674767 1301.591553,103.036026 
M1291.003784,159.452850 
	C1293.575317,160.720093 1296.033813,162.675583 1298.740479,163.120041 
	C1305.687988,164.260925 1308.999146,161.191605 1308.999756,154.436829 
	C1309.000244,148.615646 1309.161133,142.788300 1308.941284,136.975403 
	C1308.791992,133.028854 1307.342407,129.482147 1303.145508,128.189041 
	C1298.607422,126.790764 1292.143677,128.699875 1290.089233,131.734344 
	C1285.597412,138.369400 1285.782837,152.228714 1291.003784,159.452850 
z"/>
<path fill="#A630FD" opacity="1.000000" stroke="none" 
	d="
M657.278931,229.000671 
	C674.245483,228.750168 672.446899,228.903534 674.034973,244.937149 
	C674.955688,254.233414 676.191895,263.498444 677.851379,272.827606 
	C678.567383,265.968109 679.355896,259.115143 679.975464,252.246933 
	C680.434692,247.156250 680.354431,241.993118 681.180359,236.971802 
	C681.481262,235.142441 683.372559,232.850723 685.111267,232.103882 
	C693.836060,228.356155 703.198303,228.180084 712.353027,229.352325 
	C718.939514,230.195709 720.300659,235.264191 718.210693,240.895462 
	C711.445984,259.121521 705.401184,277.614594 699.067444,296.000824 
	C697.737427,299.861786 695.872925,303.612640 695.113098,307.578705 
	C693.944153,313.680603 689.777832,314.844513 684.727722,314.972900 
	C680.064758,315.091431 675.390198,314.853790 670.732788,315.053101 
	C667.923035,315.173340 666.665894,314.150482 665.912109,311.434143 
	C664.041199,304.692932 661.834167,298.044983 659.316711,289.922089 
	C657.271179,296.617523 655.476685,301.948730 654.029907,307.372742 
	C652.435608,313.350311 650.735596,314.893463 644.419983,314.985901 
	C639.921631,315.051758 635.405945,314.767731 630.927124,315.070984 
	C627.252136,315.319763 625.335754,313.575287 624.228638,310.485504 
	C618.442932,294.338531 612.709229,278.172943 606.927551,262.024536 
	C604.207336,254.426682 601.327148,246.884018 598.762634,239.234802 
	C598.373779,238.074982 598.860901,235.666946 599.704163,235.194138 
	C609.582275,229.655716 620.084290,227.570068 631.395020,229.717209 
	C637.462402,230.869003 637.366089,235.823776 637.883789,239.917435 
	C639.264893,250.836594 640.068909,261.828735 641.917175,272.908142 
	C642.278137,270.851166 642.808044,268.807465 642.971130,266.734924 
	C643.708130,257.368073 644.172302,247.976852 645.068665,238.626419 
	C645.719666,231.835556 648.776917,229.556564 657.278931,229.000671 
z"/>
<path fill="#A630FD" opacity="1.000000" stroke="none" 
	d="
M929.842041,93.981018 
	C929.650818,94.432129 929.293518,94.882866 929.292480,95.334389 
	C929.262756,108.707870 929.268372,122.081444 929.268372,135.810974 
	C930.032104,135.849167 931.631958,135.929184 933.795837,136.037415 
	C937.553955,127.003922 941.377869,118.015953 945.018677,108.954430 
	C946.353027,105.633530 947.879883,103.712784 952.089050,103.871307 
	C962.521545,104.264244 972.978821,104.000389 983.677612,104.000389 
	C984.235107,110.213280 984.475464,115.460739 980.329163,120.627541 
	C974.730225,127.604500 970.162964,135.409409 964.764893,143.436249 
	C971.935120,151.525375 978.874695,160.107544 986.644043,167.857971 
	C991.935547,173.136520 995.379456,178.484451 993.436401,186.577423 
	C981.665588,187.028091 970.419617,187.034149 959.173706,187.040192 
	C953.620300,179.069321 947.907227,171.203125 942.585144,163.080673 
	C940.152649,159.368271 937.626038,157.690948 933.364746,159.851837 
	C932.694092,160.191895 931.739380,159.971710 930.290405,160.381195 
	C929.459412,169.537033 929.254028,178.322250 929.048645,187.107468 
	C929.048645,187.107468 929.041443,187.041748 928.597778,187.036438 
	C917.827332,187.034683 907.500610,187.038239 897.173828,187.041809 
	C897.115845,161.240067 896.916138,135.437515 897.064392,109.636948 
	C897.130920,98.055008 896.451782,86.657516 894.223938,75.233879 
	C893.490845,71.474983 895.858704,67.020729 897.226562,63.027645 
	C897.468140,62.322292 899.774475,62.055241 901.131042,62.044365 
	C910.120422,61.972294 919.110718,62.025291 928.559937,62.561584 
	C929.012390,66.204315 928.918579,69.325775 929.016541,72.441208 
	C929.242188,79.622704 929.560974,86.801262 929.842041,93.981018 
z"/>
<path fill="#A730FD" opacity="1.000000" stroke="none" 
	d="
M1870.375488,142.688507 
	C1871.399902,142.637375 1872.699951,142.428650 1872.715332,142.149231 
	C1873.328491,131.003494 1865.900757,125.406235 1854.481323,127.687920 
	C1843.947998,129.792511 1833.280762,131.226685 1822.055908,133.056671 
	C1822.055908,125.402519 1821.977783,117.008392 1822.173584,108.620651 
	C1822.193604,107.760353 1823.733765,106.406509 1824.767090,106.177399 
	C1843.382690,102.049629 1862.084229,100.021767 1881.056152,103.892937 
	C1897.139771,107.174744 1905.401245,118.439743 1905.001831,134.400070 
	C1904.658569,148.125870 1905.088013,161.724609 1908.345703,175.234756 
	C1909.174072,178.669998 1907.107544,183.206284 1905.288452,186.667664 
	C1904.613037,187.952881 1900.838501,187.906738 1898.468018,187.949646 
	C1890.505859,188.093735 1882.539551,188.004395 1874.256592,188.004395 
	C1874.084229,184.851059 1873.934937,182.120850 1873.779419,179.275513 
	C1868.393799,182.084595 1863.529785,185.729675 1858.075195,187.234344 
	C1846.971436,190.297318 1835.677246,190.932709 1825.326904,184.096542 
	C1819.126343,180.001251 1814.546509,168.664520 1816.204956,161.541138 
	C1819.907349,145.638184 1826.997803,139.914612 1843.703735,137.865723 
	C1853.136230,136.708893 1861.956665,137.010223 1870.375488,142.688507 
M1852.777466,163.911728 
	C1859.760376,165.999496 1866.476807,165.461853 1872.989380,162.432495 
	C1871.540161,154.746277 1865.947876,153.525391 1857.620605,154.020355 
	C1851.749268,154.369339 1849.850098,157.665649 1852.777466,163.911728 
z"/>
<path fill="#A630FD" opacity="1.000000" stroke="none" 
	d="
M1131.836060,158.970520 
	C1132.231079,161.396042 1132.279541,163.944016 1133.084839,166.224640 
	C1135.692749,173.609161 1135.190063,180.678345 1131.220703,187.801086 
	C1121.700806,187.801086 1111.747314,187.801086 1101.448364,187.801086 
	C1101.108521,184.653381 1100.772095,181.536499 1100.328735,177.428726 
	C1090.332275,187.354218 1078.954956,190.148300 1066.481079,188.953171 
	C1052.391479,187.603256 1046.288696,183.505585 1042.776855,170.943329 
	C1038.770142,156.610184 1047.898560,142.160049 1062.595703,139.114914 
	C1075.296875,136.483322 1080.795044,134.774246 1098.220459,142.731155 
	C1100.646118,133.374023 1095.050537,126.206161 1084.873169,127.190277 
	C1074.511108,128.192261 1064.283569,130.627167 1054.018311,132.547913 
	C1052.129028,132.901413 1050.340820,133.795258 1048.219238,134.540421 
	C1048.219238,125.485580 1048.219238,116.729851 1048.219238,106.929184 
	C1054.417114,105.659676 1060.832520,103.776924 1067.368774,103.144600 
	C1076.412842,102.269684 1085.562134,101.859573 1094.639648,102.134979 
	C1103.472900,102.402969 1112.101196,104.036186 1119.820801,109.168030 
	C1127.214478,114.083244 1130.270386,121.013847 1131.023071,129.421249 
	C1131.108276,130.374298 1131.458496,131.303619 1131.595215,133.011322 
	C1131.615234,142.175980 1131.725708,150.573242 1131.836060,158.970520 
M1084.808594,154.003235 
	C1083.218750,154.359985 1081.200806,154.240402 1080.143921,155.190247 
	C1078.718506,156.471298 1077.147461,158.647446 1077.282471,160.305725 
	C1077.413452,161.915268 1079.556396,164.577347 1080.929077,164.650497 
	C1085.816650,164.910980 1090.857666,164.779953 1095.638062,163.804871 
	C1099.691162,162.978149 1100.317505,159.122849 1096.716797,157.148651 
	C1093.447754,155.356430 1089.395142,154.993530 1084.808594,154.003235 
z"/>
<path fill="#A630FD" opacity="1.000000" stroke="none" 
	d="
M990.001282,286.740814 
	C988.943420,290.601196 988.037354,294.078125 986.797302,297.431519 
	C983.170105,307.240692 975.206543,312.863068 965.659546,313.651581 
	C948.485535,315.070038 931.158936,314.742035 913.895386,314.769989 
	C912.600830,314.772034 910.186523,311.805328 910.171143,310.200562 
	C909.932190,285.372620 909.982727,260.541626 910.023987,235.711441 
	C910.031311,231.298965 912.493591,229.033997 916.846558,229.020294 
	C931.011353,228.975708 945.200867,228.519562 959.329712,229.233948 
	C965.337830,229.537750 971.650391,231.494583 977.061035,234.217499 
	C986.128845,238.780853 989.048096,247.932602 989.820435,257.212006 
	C990.622314,266.846558 990.000000,276.599640 990.001282,286.740814 
M956.000000,271.498840 
	C955.657654,266.251373 955.499939,260.983521 954.924194,255.761780 
	C954.265930,249.791595 951.038086,247.546036 945.325378,248.675171 
	C945.325378,264.358765 945.325378,280.048645 945.325378,295.619537 
	C950.334045,297.002991 953.168579,294.879181 953.904968,290.457458 
	C954.895508,284.509491 955.328003,278.468597 956.000000,271.498840 
z"/>
<path fill="#A630FD" opacity="1.000000" stroke="none" 
	d="
M1152.173950,187.041824 
	C1152.115967,175.715240 1151.630371,164.370316 1152.115112,153.066986 
	C1152.645874,140.687454 1150.238525,128.689301 1149.047852,116.521301 
	C1148.689331,112.858055 1151.227905,108.665565 1153.221558,105.160400 
	C1153.859985,104.037865 1157.010132,104.082291 1159.018921,104.047897 
	C1166.148804,103.925835 1173.281982,104.000275 1180.727417,104.000275 
	C1180.907715,106.815285 1181.061401,109.213058 1181.223633,111.747322 
	C1185.529663,109.317703 1189.418945,106.647171 1193.669434,104.814842 
	C1206.113281,99.450531 1218.424683,100.547638 1228.956543,108.824051 
	C1236.345093,114.630302 1238.495728,123.865959 1238.953613,133.113037 
	C1239.217041,138.431732 1238.640259,143.804504 1239.085571,149.098770 
	C1239.729736,156.756058 1240.575317,164.439941 1242.065063,171.967972 
	C1243.139771,177.399277 1240.822021,181.712830 1238.540039,186.694687 
	C1227.571899,187.035812 1217.232544,187.043671 1206.893188,187.051544 
	C1206.893188,187.051544 1206.958618,187.041824 1206.964355,186.598145 
	C1206.979736,172.722397 1207.023193,159.290176 1206.961670,145.858429 
	C1206.952759,143.910950 1206.441406,141.965790 1206.162598,140.019547 
	C1205.611938,128.521774 1199.020874,126.555412 1190.314819,128.868713 
	C1185.216064,130.223480 1183.729126,132.360428 1183.854126,137.591263 
	C1184.240234,153.745407 1183.975098,169.915131 1183.440186,186.542313 
	C1172.669800,187.017822 1162.421875,187.029816 1152.173950,187.041824 
z"/>
<path fill="#A630FD" opacity="1.000000" stroke="none" 
	d="
M1566.223877,173.748474 
	C1558.590454,161.496948 1557.447266,148.437012 1560.026489,135.028412 
	C1561.148926,129.192902 1562.954956,123.246429 1565.720947,118.023102 
	C1570.540527,108.922104 1579.828003,105.186821 1589.084961,103.309380 
	C1601.028564,100.887032 1613.205322,100.943100 1625.173584,104.863914 
	C1636.484131,108.569260 1643.959351,115.599838 1647.094727,127.128944 
	C1650.376831,139.198105 1650.291138,151.278015 1647.268188,163.384369 
	C1643.649536,177.875946 1633.287109,185.192291 1619.616333,187.796371 
	C1606.439331,190.306396 1593.010010,190.471298 1580.358887,184.883331 
	C1574.948608,182.493668 1569.280762,179.958359 1566.223877,173.748474 
M1606.980591,164.971161 
	C1609.439575,163.028000 1612.998413,161.587814 1614.158447,159.050674 
	C1618.200806,150.211151 1617.981934,140.941513 1614.341675,131.923798 
	C1612.731323,127.934456 1609.606323,126.007080 1605.046753,125.941902 
	C1600.234009,125.873100 1596.198242,126.496529 1594.175903,131.586136 
	C1591.217773,139.030457 1591.125977,146.718491 1592.834229,154.318863 
	C1595.026367,164.072357 1596.504883,164.983017 1606.980591,164.971161 
z"/>
<path fill="#A730FD" opacity="1.000000" stroke="none" 
	d="
M1198.713501,329.218750 
	C1198.019653,327.449402 1197.310791,325.961304 1197.286499,324.462128 
	C1197.263672,323.051788 1197.928345,321.619324 1198.349976,320.214447 
	C1201.789062,308.755188 1202.223633,308.548004 1213.802612,311.348083 
	C1216.809937,312.075317 1219.893921,312.797424 1222.962891,312.896271 
	C1230.635620,313.143402 1232.382446,310.811432 1231.797363,302.347900 
	C1226.038086,303.557983 1220.257812,305.626434 1214.411743,305.832367 
	C1199.903320,306.343506 1193.804077,301.651367 1191.355347,287.310516 
	C1189.626953,277.188843 1189.132935,266.802338 1192.914795,256.702881 
	C1196.476440,247.191452 1207.343872,241.216583 1217.421387,243.712479 
	C1227.600098,246.233444 1228.064697,246.543259 1231.824219,253.671875 
	C1231.631348,247.966461 1235.318115,245.805161 1239.433472,245.400024 
	C1245.895508,244.763794 1252.479126,244.761673 1258.965210,245.188995 
	C1262.965698,245.452576 1263.926147,249.189056 1263.947510,252.564697 
	C1264.060913,270.556763 1264.845459,288.600922 1263.749634,306.526337 
	C1262.892456,320.547882 1257.233398,330.177826 1238.075928,333.032227 
	C1225.777588,334.864685 1213.483521,335.085327 1201.488037,330.968048 
	C1200.594604,330.661407 1199.824829,329.994568 1198.713501,329.218750 
M1224.014893,269.007202 
	C1224.393555,275.414032 1224.677002,281.829437 1225.252808,288.218536 
	C1225.339722,289.182739 1226.788574,290.024261 1227.607544,290.922516 
	C1228.397461,290.032104 1229.855225,289.155151 1229.873413,288.249176 
	C1230.047241,279.614807 1229.977173,270.975555 1229.977173,262.330017 
	C1226.190430,262.450378 1226.190430,262.450378 1224.014893,269.007202 
z"/>
<path fill="#A730FD" opacity="1.000000" stroke="none" 
	d="
M842.543457,245.204880 
	C850.290710,242.135956 857.768250,242.352402 864.848999,245.537308 
	C872.406616,248.936691 874.225220,256.591309 874.726318,263.607269 
	C875.510559,274.588623 876.014221,285.775421 872.727051,296.599365 
	C869.664307,306.684204 862.500000,312.935974 852.580566,314.777344 
	C837.848877,317.512115 822.943909,317.336456 808.170410,314.056763 
	C803.154297,312.943207 800.950317,310.100098 800.960999,305.060211 
	C801.009888,282.083099 801.039551,259.105530 800.932129,236.128830 
	C800.911804,231.776413 802.517151,228.720718 806.522583,227.212204 
	C814.465088,224.220871 822.625671,222.505768 831.011292,225.045074 
	C832.560059,225.514099 834.724060,227.398346 834.794800,228.725891 
	C835.171509,235.787079 834.972046,242.878983 834.972046,249.954224 
	C836.978210,248.671219 839.577026,247.009247 842.543457,245.204880 
M842.000061,284.260925 
	C841.661438,278.505432 841.493164,272.732697 840.914673,267.001434 
	C840.609131,263.974609 839.527466,261.099152 835.339111,262.446594 
	C835.339111,274.334167 835.339111,286.045227 835.339111,297.661530 
	C839.427917,298.787262 840.318787,296.082489 840.900024,293.468231 
	C841.501404,290.763214 841.649719,287.957458 842.000061,284.260925 
z"/>
<path fill="#A730FD" opacity="1.000000" stroke="none" 
	d="
M597.995728,145.977295 
	C598.159668,134.280182 600.109497,123.513680 607.765320,114.796806 
	C615.217163,106.312088 625.391846,102.795280 636.219727,102.178009 
	C645.433594,101.652763 654.738403,102.610687 663.997559,103.032051 
	C670.372437,103.322166 672.144348,109.593903 676.221008,112.876038 
	C678.340515,114.582481 679.734619,117.189957 681.813904,119.847290 
	C677.223206,126.135506 672.455505,132.666229 667.491760,139.465393 
	C661.349670,135.972153 655.712830,132.670563 649.984924,129.535278 
	C644.135498,126.333443 637.193054,128.121414 634.578186,134.159134 
	C631.661377,140.893921 631.522339,148.006424 633.996704,155.134796 
	C636.617493,162.684814 648.566162,165.214249 655.763977,163.523376 
	C663.787720,161.638489 671.684875,159.214371 679.733887,156.998306 
	C679.733887,164.936783 679.733887,173.523865 679.733887,182.821274 
	C659.015442,190.037369 637.888123,192.968582 616.831909,183.810913 
	C605.936584,179.072357 600.929749,169.154861 599.043091,157.744019 
	C598.428040,154.023956 598.330139,150.218399 597.995728,145.977295 
z"/>
<path fill="#A630FD" opacity="1.000000" stroke="none" 
	d="
M840.059326,102.000305 
	C847.978149,102.332169 855.409119,102.615280 862.831726,103.043396 
	C864.083984,103.115608 865.680481,103.451736 866.469788,104.282043 
	C870.774292,108.810272 874.961731,113.460205 878.948669,118.267914 
	C879.503784,118.937248 879.138489,120.989075 878.501343,121.926643 
	C874.565491,127.717888 870.429749,133.373215 866.063354,139.489944 
	C860.917175,136.588058 855.962219,133.819626 851.031677,131.008423 
	C840.634399,125.080238 833.354675,127.990685 831.357727,139.725800 
	C830.150452,146.820053 829.491760,154.796341 836.515015,159.688049 
	C839.912659,162.054474 844.514099,163.583405 848.659790,163.802475 
	C857.786621,164.284790 866.351501,161.140884 874.708435,157.677979 
	C875.599060,157.308945 876.472229,156.897614 877.984924,156.225220 
	C877.984924,164.790741 878.059143,172.854431 877.884705,180.912750 
	C877.864380,181.851120 876.613708,183.365067 875.687500,183.587219 
	C867.612000,185.524109 859.546143,188.195343 851.348694,188.751297 
	C841.415894,189.424957 831.409180,189.625351 821.443665,186.416901 
	C809.702148,182.636627 802.235535,175.158432 799.202393,163.790085 
	C795.549622,150.099228 794.859192,136.107056 801.116028,122.795609 
	C806.401001,111.551758 816.028137,105.648239 827.804016,103.090858 
	C831.624329,102.261208 835.641479,102.338074 840.059326,102.000305 
z"/>
<path fill="#A630FD" opacity="1.000000" stroke="none" 
	d="
M1795.078125,187.080383 
	C1782.657715,189.281326 1770.653442,191.842087 1759.454102,184.173218 
	C1753.323975,179.975525 1750.186890,174.117493 1750.056519,166.855331 
	C1749.847412,155.206421 1750.000244,143.551025 1750.000244,131.898361 
	C1750.000244,130.111969 1750.000244,128.325562 1750.000244,126.273209 
	C1745.445068,126.273209 1741.405884,126.273209 1737.007690,126.273209 
	C1737.007690,121.054703 1736.915649,115.743866 1737.081787,110.441109 
	C1737.117065,109.318176 1737.799316,107.693398 1738.685059,107.199898 
	C1747.866699,102.083832 1752.164917,93.050751 1756.666016,84.394867 
	C1759.074341,79.763947 1761.560303,77.263367 1767.088013,77.889290 
	C1771.814087,78.424438 1776.648926,78.000000 1781.871216,78.000000 
	C1781.871216,86.740067 1781.871216,94.993248 1781.871216,104.000656 
	C1788.715332,104.000656 1795.141724,104.186356 1801.550903,103.932716 
	C1805.552368,103.774345 1807.336792,104.879822 1807.080322,109.228012 
	C1806.748291,114.858322 1806.999268,120.522987 1806.999268,126.797745 
	C1798.733887,126.797745 1790.685913,126.797745 1782.326782,126.797745 
	C1782.326782,139.329636 1782.326782,151.241913 1782.326782,164.000351 
	C1788.614502,164.000351 1795.037231,164.246643 1801.430054,163.915771 
	C1805.861938,163.686401 1807.561523,165.236755 1807.039429,169.607925 
	C1806.804199,171.577423 1807.000122,173.598373 1807.000122,175.595978 
	C1807.000000,183.992401 1806.999390,183.990326 1798.795898,186.118271 
	C1797.694214,186.404022 1796.601074,186.722870 1795.078125,187.080383 
z"/>
<path fill="#A630FD" opacity="1.000000" stroke="none" 
	d="
M1271.153076,251.994690 
	C1274.094849,250.153229 1276.833496,247.727692 1280.029175,246.616302 
	C1284.142212,245.185928 1288.592529,244.369125 1292.950073,244.081573 
	C1299.509155,243.648743 1301.544067,245.570175 1303.815430,252.867874 
	C1310.981201,244.604279 1319.818848,241.712173 1330.520996,243.941849 
	C1336.825684,245.255325 1341.035278,248.961441 1342.715332,254.800858 
	C1344.147095,259.777893 1344.784058,265.114960 1344.902344,270.312592 
	C1345.198120,283.298065 1344.960205,296.294983 1345.029175,309.286835 
	C1345.044189,312.139191 1344.678467,314.028290 1341.067261,314.079071 
	C1332.469727,314.199921 1323.877075,314.666077 1315.282227,314.984314 
	C1312.114746,315.101593 1311.986328,312.960968 1311.991943,310.622498 
	C1312.017334,300.295410 1312.103027,289.966797 1311.954102,279.641785 
	C1311.887817,275.040588 1311.526245,270.416168 1310.854370,265.867920 
	C1310.650024,264.485046 1308.961670,263.321411 1307.953003,262.057373 
	C1306.969604,263.442383 1305.154785,264.813843 1305.131958,266.214539 
	C1304.914429,279.536346 1304.659180,292.876068 1305.163696,306.182251 
	C1305.373535,311.715912 1303.888428,314.669708 1298.364014,314.774811 
	C1290.059326,314.932831 1281.749023,314.815094 1273.441650,314.751678 
	C1273.068237,314.748810 1272.699463,314.125671 1272.148315,312.962585 
	C1271.978394,294.035706 1272.014282,275.937622 1271.961670,257.839813 
	C1271.956055,255.890656 1271.435059,253.943039 1271.153076,251.994690 
z"/>
<path fill="#A630FD" opacity="1.000000" stroke="none" 
	d="
M554.000000,265.000000 
	C553.998352,190.869064 553.942444,117.238007 554.120544,43.607506 
	C554.132080,38.831562 555.673279,33.978046 557.080994,29.335918 
	C557.507751,27.928795 559.830322,26.381144 561.379150,26.274801 
	C562.457947,26.200731 564.346741,28.296839 564.741272,29.734303 
	C565.815552,33.648888 566.905334,37.727760 566.909851,41.742748 
	C567.024414,143.193375 567.018799,244.644196 566.920959,346.094879 
	C566.917603,349.618225 566.107178,353.259064 564.991272,356.618744 
	C564.322998,358.630707 562.328491,360.202179 560.930115,361.971649 
	C559.288208,360.154236 556.877686,358.591522 556.172729,356.463684 
	C554.906616,352.641968 554.111145,348.484528 554.084717,344.461060 
	C553.911987,318.141632 553.998352,291.820557 554.000000,265.000000 
z"/>
<path fill="#A630FD" opacity="1.000000" stroke="none" 
	d="
M760.269958,316.985352 
	C755.938293,316.324799 752.050598,315.765228 748.202271,315.005798 
	C731.841919,311.777405 724.788818,302.453094 723.235352,287.700104 
	C722.493713,280.657013 723.594055,273.210754 725.040649,266.190369 
	C727.997437,251.840210 738.965759,245.890839 752.045837,244.258942 
	C760.748840,243.173111 769.763062,242.627991 778.614258,244.921417 
	C788.927185,247.593567 794.614014,254.125305 795.076660,263.417511 
	C795.739807,276.736267 788.302917,283.609314 778.693237,285.831787 
	C771.725952,287.443085 764.486023,287.875397 757.361572,288.834259 
	C758.109924,294.081970 761.767334,296.383972 767.548401,294.669250 
	C771.296570,293.557495 775.286621,292.609039 778.518188,290.561401 
	C783.294739,287.534760 785.559570,290.406677 787.754211,293.560425 
	C789.233154,295.685699 790.144958,298.220428 791.208984,300.617004 
	C794.427551,307.866943 792.474548,312.334137 784.595398,313.853424 
	C776.731445,315.369781 768.693604,315.984406 760.269958,316.985352 
M763.437622,266.953064 
	C762.264648,265.320099 761.091736,263.687103 759.918762,262.054138 
	C758.945923,264.010925 757.475098,265.882324 757.121521,267.945251 
	C756.636902,270.772278 757.000305,273.744629 757.000305,277.010895 
	C762.655579,275.720673 763.183594,271.626160 763.437622,266.953064 
z"/>
<path fill="#A730FD" opacity="1.000000" stroke="none" 
	d="
M1057.503540,289.226624 
	C1060.839722,294.751526 1064.286133,299.946655 1066.506104,305.621582 
	C1067.075806,307.078064 1064.261963,311.299377 1062.172363,312.109894 
	C1052.190552,315.981628 1041.815674,318.255402 1030.983887,316.091339 
	C1025.411987,314.978149 1019.576294,314.528931 1014.343750,312.519470 
	C1005.180298,309.000427 998.959534,301.980835 998.130981,292.078552 
	C997.402161,283.367554 997.187378,274.244843 998.978882,265.776428 
	C1001.804382,252.420380 1012.392883,245.259201 1026.092163,244.263687 
	C1034.765869,243.633347 1043.651001,242.408295 1052.455566,244.885956 
	C1061.717285,247.492279 1069.648315,254.102798 1069.093506,266.106873 
	C1068.625488,276.229858 1062.872070,283.457153 1052.037231,285.984619 
	C1048.706787,286.761597 1045.354126,287.598419 1041.965088,287.926300 
	C1038.517456,288.259888 1035.012451,288.000031 1031.573120,288.000031 
	C1031.129150,292.618500 1033.147339,295.458466 1037.582031,294.802124 
	C1042.977173,294.003632 1048.159546,291.771088 1053.435913,290.165192 
	C1054.672607,289.788788 1055.916870,289.437958 1057.503540,289.226624 
M1036.984009,265.790527 
	C1036.037720,264.545990 1035.091431,263.301422 1034.145142,262.056885 
	C1033.214355,262.802765 1031.637939,263.422577 1031.463623,264.316132 
	C1030.670410,268.378448 1030.271973,272.517853 1029.690552,276.941467 
	C1036.166626,275.624115 1036.972900,274.331970 1036.984009,265.790527 
z"/>
<path fill="#A630FD" opacity="1.000000" stroke="none" 
	d="
M699.173950,187.039703 
	C699.115967,165.729248 700.045227,144.355194 698.677734,123.129112 
	C697.643494,107.074364 700.009766,90.768364 695.367737,74.840172 
	C694.409363,71.551903 696.712036,66.797684 698.696533,63.414085 
	C699.522705,62.005470 703.445312,62.105236 705.970154,62.057350 
	C714.094177,61.903275 722.222900,61.999981 730.961792,61.999981 
	C730.961792,103.646835 730.961792,144.876694 730.436646,186.564224 
	C719.665649,187.027832 709.419800,187.033768 699.173950,187.039703 
z"/>
<path fill="#A730FD" opacity="1.000000" stroke="none" 
	d="
M1102.114624,294.997925 
	C1105.092285,294.396973 1107.637695,293.794312 1110.183105,293.191620 
	C1110.145630,292.405762 1110.108154,291.619904 1110.070679,290.834015 
	C1106.557617,289.904114 1103.051514,288.946747 1099.529663,288.051392 
	C1095.267700,286.967865 1090.840942,286.338287 1086.755005,284.797729 
	C1078.764282,281.784973 1075.651123,272.345581 1077.378174,263.123444 
	C1079.560181,251.473633 1087.454590,246.029617 1098.342041,244.075851 
	C1109.831665,242.014053 1121.383545,242.288925 1132.673218,245.088333 
	C1141.712646,247.329773 1144.120483,249.650772 1140.319336,258.320374 
	C1139.798462,259.508270 1139.584839,260.843292 1138.986450,261.982880 
	C1135.258911,269.082367 1133.526489,269.657135 1125.792114,267.463715 
	C1121.885742,266.355896 1117.838501,265.673615 1113.812012,265.102661 
	C1112.615234,264.932983 1111.272217,265.795105 1109.996216,266.184418 
	C1109.929077,266.682800 1109.861938,267.181213 1109.794678,267.679596 
	C1111.604614,268.450867 1113.357422,269.423981 1115.235229,269.955353 
	C1120.726562,271.509277 1126.408936,272.496399 1131.755249,274.428314 
	C1139.218994,277.125366 1142.470825,283.340912 1142.926270,290.862305 
	C1143.429565,299.174713 1141.154419,306.571075 1133.478394,311.107544 
	C1127.515381,314.631531 1121.127197,316.661804 1113.986816,316.064545 
	C1103.778931,315.210663 1093.305908,315.808319 1083.384399,313.712189 
	C1072.745239,311.464539 1072.115601,310.040405 1075.813843,300.453552 
	C1076.223999,299.390411 1076.528687,298.287018 1076.897949,297.207672 
	C1079.470215,289.689392 1081.199829,288.849304 1088.532471,291.188538 
	C1092.878296,292.575012 1097.296631,293.734558 1102.114624,294.997925 
z"/>
<path fill="#A730FD" opacity="1.000000" stroke="none" 
	d="
M1364.963989,290.923706 
	C1371.058105,292.321991 1376.714233,293.852325 1382.463135,294.847229 
	C1383.779785,295.075104 1385.415649,293.458679 1386.904541,292.691040 
	C1385.653809,291.663849 1384.557373,290.138031 1383.125854,289.694611 
	C1376.460083,287.629913 1369.688599,285.909271 1362.980347,283.977448 
	C1357.973022,282.535431 1356.222168,277.982758 1355.210083,273.875793 
	C1351.427979,258.526306 1361.116333,245.806900 1376.836182,243.909225 
	C1389.070068,242.432373 1401.101562,242.466965 1412.962158,245.959534 
	C1419.340088,247.837662 1420.816040,251.456741 1418.124023,257.617157 
	C1412.595581,270.267609 1409.945679,271.299866 1396.943237,265.869263 
	C1393.523315,264.440918 1390.237793,264.379578 1387.147827,266.297272 
	C1387.038574,266.881958 1386.929321,267.466644 1386.819946,268.051361 
	C1390.392334,269.034210 1393.930298,270.173950 1397.544312,270.966919 
	C1404.786255,272.555908 1412.192017,273.918121 1416.789917,280.543243 
	C1423.124756,289.671234 1422.105469,308.762238 1405.045898,313.699371 
	C1397.588623,315.857574 1389.364014,315.830017 1381.479492,315.904480 
	C1374.635010,315.969147 1367.733887,315.077911 1360.938721,314.066223 
	C1352.401001,312.795166 1350.328003,309.138641 1352.916382,301.116821 
	C1353.617920,298.942963 1354.283447,296.750763 1355.123901,294.629730 
	C1356.919556,290.097260 1360.021362,288.628815 1364.963989,290.923706 
z"/>
<path fill="#A630FD" opacity="1.000000" stroke="none" 
	d="
M1664.173462,187.038712 
	C1664.115723,172.214767 1664.360840,157.380829 1663.873169,142.571045 
	C1663.626587,135.083267 1661.659058,127.662483 1661.216431,120.167313 
	C1660.904175,114.879547 1661.848022,109.517616 1662.202759,104.582268 
	C1671.035889,103.993614 1678.446655,103.240891 1685.863281,103.177795 
	C1687.850098,103.160896 1689.854736,105.247765 1692.222168,106.577156 
	C1713.599976,98.389778 1724.493652,100.104439 1736.040894,113.959961 
	C1732.264526,121.499352 1728.448486,129.118286 1724.457642,137.085846 
	C1717.417114,134.091553 1710.477783,131.120071 1703.521484,128.188690 
	C1698.557251,126.096779 1696.020996,127.747879 1696.009644,133.127731 
	C1695.972046,150.787079 1695.974487,168.446503 1695.436523,186.566284 
	C1684.665405,187.030670 1674.419434,187.034683 1664.173462,187.038712 
z"/>
<path fill="#A630FD" opacity="1.000000" stroke="none" 
	d="
M1926.173950,187.039825 
	C1926.116089,172.226761 1926.326050,157.405670 1925.882935,142.604156 
	C1925.673462,135.607941 1924.730835,128.530624 1923.168091,121.708176 
	C1921.721069,115.390495 1923.027344,109.878311 1925.718628,104.006897 
	C1933.179443,104.006897 1940.822021,104.006531 1948.464478,104.008125 
	C1948.797241,104.008194 1949.287476,103.885559 1949.440063,104.056282 
	C1953.656250,108.770973 1957.685303,104.985954 1961.637451,103.682037 
	C1976.206665,98.875122 1987.531738,101.922310 1998.140869,113.950562 
	C1994.249756,121.487854 1990.291626,129.155273 1986.242310,136.999161 
	C1978.926758,133.882019 1972.213623,130.999420 1965.482056,128.160736 
	C1960.592773,126.098976 1958.020020,127.809647 1958.009155,133.167480 
	C1957.973389,150.813828 1957.974487,168.460266 1957.436523,186.564392 
	C1946.665527,187.028030 1936.419800,187.033936 1926.173950,187.039825 
z"/>
<path fill="#A630FD" opacity="1.000000" stroke="none" 
	d="
M751.160889,128.015350 
	C749.229614,121.161339 746.172180,114.336967 750.080933,107.227234 
	C750.768616,105.976486 752.076538,104.180946 753.133179,104.156509 
	C763.221313,103.923149 773.317078,104.017136 783.173340,104.017136 
	C783.567993,104.752899 783.848999,105.032257 783.848877,105.311478 
	C783.836853,132.380783 783.803467,159.450073 782.958069,186.773834 
	C772.060852,187.036087 761.977051,187.043869 751.893188,187.051651 
	C751.893188,187.051651 751.958191,187.041824 751.963257,186.597900 
	C751.978638,168.723251 752.015381,151.292435 751.962158,133.861877 
	C751.956238,131.912247 751.440308,129.964157 751.160889,128.015350 
z"/>
<path fill="#A630FD" opacity="1.000000" stroke="none" 
	d="
M1150.000000,291.999878 
	C1150.000122,280.002502 1150.115845,268.503235 1149.931152,257.008789 
	C1149.874634,253.500656 1151.208862,251.084198 1154.252930,250.007217 
	C1161.792358,247.340012 1169.303223,244.752060 1177.649658,246.850296 
	C1181.570190,247.835922 1183.128540,249.289764 1183.083374,253.454544 
	C1182.887817,271.448395 1183.002197,289.445587 1182.998657,307.441559 
	C1182.997314,313.849396 1182.670776,314.573486 1176.126831,314.906616 
	C1168.481934,315.295807 1160.794678,315.148132 1153.144775,314.807220 
	C1152.043335,314.758087 1150.220703,312.369751 1150.146606,310.988007 
	C1149.816650,304.840363 1150.001343,298.665100 1150.000000,291.999878 
z"/>
<path fill="#A730FD" opacity="1.000000" stroke="none" 
	d="
M748.775635,80.272720 
	C747.409790,79.036163 746.287964,78.049690 744.602417,76.567574 
	C750.407532,70.878014 755.894653,65.551468 761.323547,60.166203 
	C768.044312,53.499462 768.024292,53.477612 774.918030,60.372353 
	C779.265076,64.719940 783.522888,69.161842 787.990417,73.381798 
	C790.295898,75.559464 790.535889,77.169647 788.110901,79.491989 
	C782.112183,85.236946 776.236755,91.118134 770.492249,97.117355 
	C768.158264,99.554810 766.553467,99.304565 764.412048,96.938126 
	C759.379883,91.377098 754.162292,85.983925 748.775635,80.272720 
z"/>
<path fill="#A730FD" opacity="1.000000" stroke="none" 
	d="
M1152.664795,239.314850 
	C1145.634521,232.124466 1150.124878,222.499664 1157.039551,221.611450 
	C1163.402954,220.794083 1170.009277,220.648087 1176.365967,221.404434 
	C1180.988770,221.954483 1183.934692,225.511398 1184.030273,230.759232 
	C1184.119507,235.654205 1181.856934,239.892624 1177.066284,241.344818 
	C1168.903809,243.819138 1160.708496,244.181641 1152.664795,239.314850 
z"/>
<path fill="#C826FA" opacity="1.000000" stroke="none" 
	d="
M160.202560,387.448792 
	C212.993622,387.072510 266.047058,387.038696 319.100525,386.998474 
	C334.733765,386.986633 350.367004,386.956665 366.485352,387.147919 
	C366.970490,387.360809 367.001343,387.838715 367.001343,387.838715 
	C361.349731,387.892487 355.698120,387.991913 350.046509,387.992950 
	C288.842590,388.004181 227.638702,388.002014 166.434799,387.991150 
	C164.444839,387.990784 162.454895,387.859192 160.202560,387.448792 
z"/>
<path fill="#BF27FB" opacity="1.000000" stroke="none" 
	d="
M322.585205,319.026978 
	C323.878235,318.696838 325.628845,318.046967 327.379913,318.045807 
	C388.295227,318.005463 449.210571,318.026245 510.596375,318.066711 
	C509.184235,318.396729 507.301849,318.960510 505.418976,318.962036 
	C444.627014,319.011353 383.835022,319.006470 322.585205,319.026978 
z"/>
<path fill="#BF27FB" opacity="1.000000" stroke="none" 
	d="
M17.217239,318.458130 
	C76.240997,318.081116 135.528976,318.031982 194.816956,318.023956 
	C197.956497,318.023560 201.096054,318.370697 204.555084,318.801422 
	C144.403763,319.031189 83.932953,319.017548 23.462149,318.991425 
	C21.468557,318.990570 19.475019,318.863068 17.217239,318.458130 
z"/>
<path fill="#BA29FB" opacity="1.000000" stroke="none" 
	d="
M367.385376,387.656891 
	C367.001343,387.838715 366.970490,387.360809 366.948792,387.121643 
	C366.934204,382.894318 366.796478,378.899078 366.990967,374.920074 
	C367.169189,371.274414 365.721954,369.895050 362.057922,369.937622 
	C350.427246,370.072754 338.793884,370.000458 327.161743,369.955353 
	C325.687866,369.949646 324.215271,369.628784 322.427795,369.199036 
	C337.165558,368.944183 352.217529,368.944183 367.769440,368.944183 
	C367.769440,375.370117 367.769440,381.422577 367.385376,387.656891 
z"/>
<path fill="#C826FA" opacity="1.000000" stroke="none" 
	d="
M1271.091797,252.461700 
	C1271.435059,253.943039 1271.956055,255.890656 1271.961670,257.839813 
	C1272.014282,275.937622 1271.978394,294.035706 1271.954102,312.606140 
	C1271.626709,311.551086 1271.045166,310.024384 1271.040771,308.496002 
	C1270.988159,289.973694 1271.020386,271.451172 1271.091797,252.461700 
z"/>
<path fill="#BF27FB" opacity="1.000000" stroke="none" 
	d="
M751.095337,128.479736 
	C751.440308,129.964157 751.956238,131.912247 751.962158,133.861877 
	C752.015381,151.292435 751.978638,168.723251 751.958374,186.630432 
	C751.632385,185.577148 751.046143,184.048233 751.041504,182.517548 
	C750.987000,164.659897 751.019958,146.801956 751.095337,128.479736 
z"/>
<path fill="#BF27FB" opacity="1.000000" stroke="none" 
	d="
M1436.400146,186.843567 
	C1436.035156,170.277374 1435.999268,153.448013 1436.033325,136.618805 
	C1436.036621,134.988480 1436.473145,133.359024 1436.924072,131.376099 
	C1437.093018,147.564957 1437.054443,164.106903 1436.989746,180.648743 
	C1436.982056,182.626266 1436.832520,184.603226 1436.400146,186.843567 
z"/>
<path fill="#C826FA" opacity="1.000000" stroke="none" 
	d="
M1206.097412,140.483673 
	C1206.441406,141.965790 1206.952759,143.910950 1206.961670,145.858429 
	C1207.023193,159.290176 1206.979736,172.722397 1206.960938,186.631012 
	C1206.634399,185.582825 1206.048584,184.059250 1206.041870,182.533157 
	C1205.981201,168.671616 1206.021606,154.809647 1206.097412,140.483673 
z"/>
<path fill="#BF27FB" opacity="1.000000" stroke="none" 
	d="
M204.414871,368.972961 
	C203.130753,369.303070 201.390305,369.942413 199.646591,369.951477 
	C186.727798,370.018646 173.808365,369.960510 160.421005,369.910156 
	C161.665405,369.585693 163.376511,369.048737 165.090668,369.038879 
	C178.045792,368.964478 191.001511,368.993530 204.414871,368.972961 
z"/>
<path fill="#BE27FB" opacity="1.000000" stroke="none" 
	d="
M959.377319,187.406830 
	C970.419617,187.034149 981.665588,187.028091 993.368958,187.031219 
	C993.150391,187.356735 992.474060,187.949036 991.798462,187.948181 
	C981.059204,187.934799 970.320068,187.845459 959.377319,187.406830 
z"/>
<path fill="#C726FA" opacity="1.000000" stroke="none" 
	d="
M929.901978,93.516220 
	C929.560974,86.801262 929.242188,79.622704 929.016541,72.441208 
	C928.918579,69.325775 929.012390,66.204315 929.026611,62.627876 
	C929.356201,63.672688 929.944031,65.172905 929.957031,66.678116 
	C930.033264,75.468567 929.974854,84.260201 929.901978,93.516220 
z"/>
<path fill="#BF27FB" opacity="1.000000" stroke="none" 
	d="
M1404.378174,187.407837 
	C1414.500610,187.038452 1424.827271,187.035049 1435.630371,187.041718 
	C1434.069702,187.367981 1432.033569,187.946518 1429.995239,187.954559 
	C1421.524658,187.987946 1413.053467,187.849319 1404.378174,187.407837 
z"/>
<path fill="#BE27FB" opacity="1.000000" stroke="none" 
	d="
M699.377319,187.406509 
	C709.419800,187.033768 719.665649,187.027832 730.369019,187.031113 
	C729.490356,187.360367 728.154480,187.954880 726.818054,187.956192 
	C717.739014,187.965149 708.659851,187.849030 699.377319,187.406509 
z"/>
<path fill="#BF27FB" opacity="1.000000" stroke="none" 
	d="
M897.378174,187.407822 
	C907.500610,187.038239 917.827332,187.034683 928.630493,187.041168 
	C927.069885,187.367599 925.033875,187.946503 922.995667,187.954544 
	C914.524963,187.988022 906.053650,187.849335 897.378174,187.407822 
z"/>
<path fill="#BF27FB" opacity="1.000000" stroke="none" 
	d="
M1152.378174,187.407806 
	C1162.421875,187.029816 1172.669800,187.017822 1183.375732,187.007629 
	C1182.840942,187.339188 1181.848145,187.954422 1180.855347,187.954361 
	C1171.431030,187.953842 1162.006836,187.848785 1152.378174,187.407806 
z"/>
<path fill="#BE27FB" opacity="1.000000" stroke="none" 
	d="
M1207.156006,187.400314 
	C1217.232544,187.043671 1227.571899,187.035812 1238.368652,187.034607 
	C1237.148804,187.361069 1235.471802,187.952591 1233.793945,187.955170 
	C1225.002441,187.968674 1216.210693,187.832947 1207.156006,187.400314 
z"/>
<path fill="#BE27FB" opacity="1.000000" stroke="none" 
	d="
M1926.377441,187.406586 
	C1936.419800,187.033936 1946.665527,187.028030 1957.368896,187.031281 
	C1956.490112,187.360443 1955.154297,187.954865 1953.817871,187.956177 
	C1944.738892,187.965164 1935.659790,187.849045 1926.377441,187.406586 
z"/>
<path fill="#BE28FB" opacity="1.000000" stroke="none" 
	d="
M1664.376343,187.405945 
	C1674.419434,187.034683 1684.665405,187.030670 1695.368896,187.033096 
	C1694.489380,187.359909 1693.152588,187.955002 1691.815308,187.956329 
	C1682.736572,187.965332 1673.657959,187.849014 1664.376343,187.405945 
z"/>
<path fill="#BF27FB" opacity="1.000000" stroke="none" 
	d="
M1459.137817,187.387421 
	C1469.219604,187.033203 1479.565430,187.028244 1490.368652,187.032669 
	C1489.480713,187.361404 1488.135132,187.956100 1486.789917,187.955688 
	C1477.660522,187.952866 1468.531128,187.824493 1459.137817,187.387421 
z"/>
<path fill="#BF27FB" opacity="1.000000" stroke="none" 
	d="
M752.156311,187.400116 
	C761.977051,187.043869 772.060852,187.036087 782.618469,187.039429 
	C780.916138,187.367020 778.741211,187.944397 776.563843,187.953415 
	C768.516113,187.986786 760.467651,187.832397 752.156311,187.400116 
z"/>
<path fill="#BF27FB" opacity="1.000000" stroke="none" 
	d="
M1513.166504,187.400589 
	C1522.986938,187.043365 1533.065552,187.035934 1543.617920,187.039444 
	C1541.916138,187.366913 1539.741699,187.944244 1537.564819,187.953415 
	C1529.518555,187.987350 1521.471436,187.833588 1513.166504,187.400589 
z"/>
<path fill="#C826FA" opacity="1.000000" stroke="none" 
	d="
M929.399292,186.846436 
	C929.254028,178.322250 929.459412,169.537033 929.876282,160.402206 
	C929.975098,168.896866 929.862488,177.741119 929.399292,186.846436 
z"/>
<path fill="#C726FA" opacity="1.000000" stroke="none" 
	d="
M1131.902100,158.507507 
	C1131.725708,150.573242 1131.615234,142.175980 1131.673462,133.405991 
	C1131.884155,141.370346 1131.926147,149.707428 1131.902100,158.507507 
z"/>
<path fill="#C426FA" opacity="1.000000" stroke="none" 
	d="
M496.189514,265.562195 
	C495.959717,186.603424 495.974274,107.321777 495.970581,27.583035 
	C496.299957,29.047026 496.950287,30.967896 496.951630,32.889217 
	C497.004395,108.531761 497.002075,184.174347 496.975952,259.816925 
	C496.975342,261.624451 496.622467,263.431885 496.189514,265.562195 
z"/>
<path fill="#FC15EE" opacity="1.000000" stroke="none" 
	d="
M306.023743,81.130013 
	C304.001099,87.298195 302.098480,93.508926 299.929626,99.625267 
	C296.029816,110.622833 292.026367,121.584587 287.964508,132.523514 
	C281.800507,149.123764 275.469543,165.662354 269.369568,182.285858 
	C266.355347,190.500061 263.727997,198.855637 260.869202,207.127747 
	C259.278198,211.731369 257.676392,216.337997 255.831543,220.841690 
	C255.444336,221.786926 253.979584,222.885880 252.996597,222.900223 
	C242.740448,223.049850 232.481262,222.992462 221.258087,222.992462 
	C238.667007,175.317932 255.779495,128.455170 273.481262,81.265198 
	C284.721588,81.002007 295.372650,81.066010 306.023743,81.130013 
z"/>
<path fill="#FB16EE" opacity="1.000000" stroke="none" 
	d="
M368.644043,124.368820 
	C381.197388,130.705093 393.385742,136.941071 405.720673,142.872131 
	C408.447113,144.183090 408.720947,145.882919 409.124207,148.517899 
	C410.618103,158.279861 407.740417,163.990433 397.540680,167.438278 
	C383.299561,172.252197 369.706970,179.009827 355.909119,185.099411 
	C348.937958,188.176071 342.171082,191.712814 335.228912,194.858566 
	C328.050995,198.111145 320.772614,201.141998 312.938171,204.529282 
	C312.938171,194.981903 312.859528,186.212189 313.056030,177.448639 
	C313.076385,176.541199 314.574768,175.286743 315.654907,174.839905 
	C333.635376,167.401443 351.658569,160.066269 370.380157,152.418900 
	C364.379425,149.494064 358.945557,146.686722 353.381775,144.166168 
	C341.141174,138.620880 328.851013,133.183868 316.543884,127.787430 
	C313.580170,126.487907 312.287170,124.857491 312.611755,121.263100 
	C313.142670,115.383652 312.800415,109.425957 312.839905,103.501358 
	C312.884308,96.846474 313.139313,96.690651 319.167297,99.704514 
	C335.244995,107.743034 351.317841,115.791252 367.395569,123.829750 
	C367.689087,123.976524 368.018890,124.050667 368.644043,124.368820 
z"/>
<path fill="#FB15EE" opacity="1.000000" stroke="none" 
	d="
M174.020477,117.041878 
	C186.884445,110.662155 199.381516,104.371208 211.887970,98.098976 
	C212.313889,97.885368 212.834122,97.859802 213.979401,97.587547 
	C213.979401,106.644836 214.094025,115.514938 213.835083,124.374123 
	C213.802521,125.487961 211.993988,126.970276 210.683502,127.559700 
	C200.442337,132.165878 190.049728,136.438995 179.849396,141.131226 
	C172.273071,144.616409 164.914352,148.574615 157.109055,152.497879 
	C176.199997,160.260742 194.883438,167.857895 213.791748,175.546494 
	C213.791748,184.824524 213.791748,194.261292 213.791748,204.415283 
	C209.359421,202.495743 205.339035,200.787170 201.344818,199.019547 
	C174.645721,187.204025 147.932205,175.420288 121.309723,163.434448 
	C119.814812,162.761429 118.226051,160.438049 118.133904,158.801041 
	C117.371437,145.255905 117.477066,145.253784 129.495880,139.240677 
	C144.217453,131.875351 158.935486,124.502975 174.020477,117.041878 
z"/>
<path fill="#AF2DFB" opacity="1.000000" stroke="none" 
	d="
M306.266663,80.858047 
	C295.372650,81.066010 284.721588,81.002007 273.612671,80.909515 
	C275.183777,80.587761 277.215393,80.027267 279.241302,80.047203 
	C288.331635,80.136635 297.420319,80.391136 306.266663,80.858047 
z"/>
</svg>