<svg xmlns="http://www.w3.org/2000/svg" version="1.1" xmlns:xlink="http://www.w3.org/1999/xlink" xmlns:svgjs="http://svgjs.dev/svgjs" width="2000" height="434" viewBox="0 0 2000 434"><g transform="matrix(1,0,0,1,-1.2121212121212466,-0.6892835944281615)"><svg viewBox="0 0 396 86" data-background-color="#ffffff" preserveAspectRatio="xMidYMid meet" height="434" width="2000" xmlns="http://www.w3.org/2000/svg" xmlns:xlink="http://www.w3.org/1999/xlink"><g id="tight-bounds" transform="matrix(1,0,0,1,0.2400000000000091,0.13658615004797525)"><svg viewBox="0 0 395.52 85.24886218583235" height="85.24886218583235" width="395.52"><g><svg viewBox="0 0 589.9211324928847 127.14933587276515" height="85.24886218583235" width="395.52"><g><rect width="3.8357427714314527" height="110.40463317461517" x="180.52417827791547" y="8.37235134907499" fill="#fd15ee" opacity="1" stroke-width="0" stroke="transparent" fill-opacity="1" class="rect-qz-0" data-fill-palette-color="primary" rx="1%" id="qz-0" data-palette-color="#fd15ee"></rect></g><g transform="matrix(1,0,0,1,194.40113249288476,17.572737446959586)"><svg viewBox="0 0 395.5199999999999 92.00386097884598" height="92.00386097884598" width="395.5199999999999"><g id="textblocktransform"><svg viewBox="0 0 395.5199999999999 92.00386097884598" height="92.00386097884598" width="395.5199999999999" id="textblock"><g><svg viewBox="0 0 395.5199999999999 42.533808788431834" height="42.533808788431834" width="395.5199999999999"><g transform="matrix(1,0,0,1,0,0)"><svg width="395.5199999999999" viewBox="2 -37.8 356.12 38.300000000000004" height="42.533808788431834" data-palette-color="#fd15ee"><path d="M19.95 0.5L19.95 0.5Q16.55 0.5 13.35-0.28 10.15-1.05 7.58-3.05 5-5.05 3.5-8.6 2-12.15 2-17.7L2-17.7Q2-22.85 3.5-26.35 5-29.85 7.5-31.95 10-34.05 12.98-34.98 15.95-35.9 18.95-35.9L18.95-35.9Q21.5-35.9 23.93-35.5 26.35-35.1 27.45-34.6L27.45-34.6 33-30.05 28.5-22.8 19.95-27.2Q16.4-27.2 13.95-24.88 11.5-22.55 11.5-17.7L11.5-17.7Q11.5-14.25 12.73-12.1 13.95-9.95 16.1-8.95 18.25-7.95 21-7.95L21-7.95Q23.9-7.95 25.95-8.43 28-8.9 29.55-9.58 31.1-10.25 32.5-10.9L32.5-10.9 32.5-2.5Q30.75-1.4 27.85-0.45 24.95 0.5 19.95 0.5ZM46.75 0L37.75 0 37.7-27.4 36.7-32.4 37.75-35.4 46.75-35.4 46.75 0ZM63.6-31.45L57.25-25.05 50.9-31.45 57.25-37.8 63.6-31.45ZM61.75 0L52.75 0 52.75-16.55 51.7-20.55 52.7-23.6 61.75-23.6 61.75 0ZM77.84 0.5L77.84 0.5Q74.39 0.5 71.62-0.65 68.84-1.8 67.22-4.5 65.59-7.2 65.59-11.8L65.59-11.8Q65.59-16.45 67.34-19.13 69.09-21.8 71.89-22.95 74.69-24.1 77.84-24.1L77.84-24.1Q80.59-24.1 82.57-23.9 84.54-23.7 85.19-23.55L85.19-23.55 89.09-19.15 85.09-13.7 79.34-17.1Q75.04-17.1 75.04-11.8L75.04-11.8Q75.04-9.05 76.34-7.78 77.64-6.5 80.34-6.5L80.34-6.5Q83.04-6.5 85.19-7.25 87.34-8 88.54-8.65L88.54-8.65 88.54-1.45Q86.99-0.65 84.47-0.08 81.94 0.5 77.84 0.5ZM103.14 0L94.14 0 94.14-27.4 93.09-32.4 94.14-35.4 103.14-35.4 103.14-27.4 102.59-14.45 104.59-14.45 108.44-23.6 118.64-23.6 118.64-20.6 113.09-12.5 116.79-8 121.49-2.95 121.49 0 111.79 0 106.14-8.25 103.14-7.75 103.14 0ZM147.39 0.5L147.39 0.5Q142.39 0.5 139.44-2.18 136.49-4.85 136.49-9.85L136.49-9.85Q136.49-12.4 137.34-14.23 138.19-16.05 139.49-17.2 140.79-18.35 142.16-19 143.54-19.65 144.59-19.9L144.59-19.9Q144.09-20.5 143.39-21.48 142.69-22.45 142.16-23.88 141.64-25.3 141.64-27.25L141.64-27.25Q141.64-28.75 142.34-30.35 143.04-31.95 144.44-33.33 145.84-34.7 147.84-35.4L147.84-35.4Q149.14-35.85 150.74-35.98 152.34-36.1 153.86-36.02 155.39-35.95 156.61-35.77 157.84-35.6 158.39-35.45L158.39-35.45 162.34-31.45 159.29-26.3 154.34-27.85Q152.89-27.8 152.01-27.23 151.14-26.65 151.14-25.2L151.14-25.2Q151.14-24.05 151.96-22.98 152.79-21.9 153.79-20.9L153.79-20.9 161.14-13.55 161.64-14.1 160.14-20.6 160.64-23.6 170.54-22.6 170.54-14.9 165.54-9.4 169.24-5.95 172.94-3 172.94 0 163.34 0 159.29-4.2Q158.64-3.6 157.21-2.48 155.79-1.35 153.39-0.43 150.99 0.5 147.39 0.5ZM149.39-7.5L149.39-7.5Q151.14-7.5 152.54-8.13 153.94-8.75 154.29-9.1L154.29-9.1 149.04-14.1Q147.59-13.6 146.79-12.58 145.99-11.55 145.99-10.25L145.99-10.25Q145.99-8.9 146.91-8.2 147.84-7.5 149.39-7.5ZM200.03 0L190.43 0 190.43-27.35 189.43-32.35 190.48-35.35 200.03-35.35 209.83-16.35 210.83-16.35 218.93-35.35 228.88-35.35 229.38-32.35 228.88-27.55 228.88 0 219.83 0 219.98-4.25 219.98-18.2 219.43-18.2 217.43-13.4 212.93-5 206.93-5 200.03-18.2 199.53-18.2 199.53-14.15 200.03 0ZM246.43 0.5L246.43 0.5Q240.33 0.5 236.98-2.4 233.63-5.3 233.63-11.8L233.63-11.8Q233.63-18.35 236.98-21.23 240.33-24.1 246.43-24.1L246.43-24.1Q252.68-24.1 255.9-21.23 259.13-18.35 259.13-11.8L259.13-11.8Q259.13-5.3 255.9-2.4 252.68 0.5 246.43 0.5ZM246.43-6L246.43-6Q248.48-6 249.28-7.53 250.08-9.05 250.08-11.8L250.08-11.8Q250.08-14.6 249.28-16.1 248.48-17.6 246.43-17.6L246.43-17.6Q244.33-17.6 243.5-16.1 242.68-14.6 242.68-11.8L242.68-11.8Q242.68-9.05 243.5-7.53 244.33-6 246.43-6ZM272.32 0L263.43 0 263.43-15.65 262.38-20.65 263.43-23.65 270.23-23.65 271.23-22.5Q271.23-22.5 271.93-22.93 272.63-23.35 273.9-23.75 275.18-24.15 276.88-24.15L276.88-24.15Q277.88-24.15 278.88-24 279.88-23.85 280.43-23.6L280.43-23.6 283.68-20.85 280.43-14.45 273.82-17.2 272.32-16.7 272.32 0ZM295.32 0.5L295.32 0.5Q291.92 0.5 289.87-1.5 287.82-3.5 287.82-6.55L287.82-6.55 287.82-17.45 284.17-17.45 284.17-22.2 287.32-24.65 290.87-30.85 296.77-30.85 296.77-23.6 303.77-23.6 303.77-17.1 296.77-17.1 296.77-6.4 303.77-6.45 303.77-1Q303.77-1 302.6-0.63 301.42-0.25 299.52 0.13 297.62 0.5 295.32 0.5ZM314.77 0.5L314.77 0.5Q312.62 0.5 310.8-0.13 308.97-0.75 307.87-2.3 306.77-3.85 306.77-6.6L306.77-6.6Q306.77-9.1 308.02-10.75 309.27-12.4 311.42-13.2 313.57-14 316.27-14L316.27-14Q318.87-14 320.17-13.43 321.47-12.85 322.42-12.25L322.42-12.25 322.77-12.55Q322.77-14.05 322.52-15.05 322.27-16.05 321.37-16.57 320.47-17.1 318.57-17.1L318.57-17.1Q316.72-17.1 314.65-16.78 312.57-16.45 310.85-15.98 309.12-15.5 308.27-15.05L308.27-15.05 308.27-22.55Q309.82-23.1 312.7-23.58 315.57-24.05 319.77-24.05L319.77-24.05Q324.27-24.05 326.9-22.93 329.52-21.8 330.67-19.68 331.82-17.55 331.82-14.6L331.82-14.6 331.82-7.95 332.82-2.9 331.82 0.05 323.27 0.05 323.27-2.4 322.77-2.65Q322.37-2.25 321.37-1.5 320.37-0.75 318.72-0.13 317.07 0.5 314.77 0.5ZM319.02-6.05L319.02-6.05Q320.37-6.05 321.35-6.3 322.32-6.55 322.77-6.75L322.77-6.75 322.77-7.7Q322.77-8.35 321.85-8.95 320.92-9.55 318.97-9.55L318.97-9.55Q316.27-9.55 316.27-7.65L316.27-7.65Q316.27-6.85 316.87-6.45 317.47-6.05 319.02-6.05ZM346.77 0L337.87 0 337.87-15.65 336.82-20.65 337.87-23.65 344.67-23.65 345.67-22.5Q345.67-22.5 346.37-22.93 347.07-23.35 348.34-23.75 349.62-24.15 351.32-24.15L351.32-24.15Q352.32-24.15 353.32-24 354.32-23.85 354.87-23.6L354.87-23.6 358.12-20.85 354.87-14.45 348.27-17.2 346.77-16.7 346.77 0Z" opacity="1" transform="matrix(1,0,0,1,0,0)" fill="#fd15ee" class="wordmark-text-0" data-fill-palette-color="primary" id="text-0"></path></svg></g></svg></g><g transform="matrix(1,0,0,1,0,52.57502023196967)"><svg viewBox="0 0 223.16806609512153 39.42884074687631" height="39.42884074687631" width="223.16806609512153"><g transform="matrix(1,0,0,1,0,0)"><svg width="223.16806609512153" viewBox="1.5 -35.9 269.68 47.65" height="39.42884074687631" data-palette-color="#fd15ee"><path d="M8.55 0L1.5-34.6 5.5-34.6 11.4-3.4 12.85-3.4 19.9-34.3 24.4-34.3 31.45-3.4 32.9-3.4 38.8-34.6 42.75-34.6 35.75 0 28.7 0 22.15-29.55 15.6 0 8.55 0ZM63.9-3.1L63.9-3.1 65.35-3.25 65.45-0.3Q59.75 0.5 55.7 0.5L55.7 0.5Q50.3 0.5 48.05-2.63 45.8-5.75 45.8-12.35L45.8-12.35Q45.8-25.5 56.25-25.5L56.25-25.5Q61.3-25.5 63.8-22.68 66.3-19.85 66.3-13.8L66.3-13.8 66.1-10.95 49.6-10.95Q49.6-6.8 51.1-4.8 52.6-2.8 56.32-2.8 60.05-2.8 63.9-3.1ZM49.55-13.95L62.55-13.95Q62.55-18.55 61.07-20.45 59.6-22.35 56.27-22.35 52.95-22.35 51.27-20.35 49.6-18.35 49.55-13.95L49.55-13.95ZM83.2-25.5L83.2-25.5Q88.25-25.5 90.27-22.63 92.3-19.75 92.3-12.55 92.3-5.35 89.77-2.43 87.25 0.5 80.5 0.5L80.5 0.5Q78.4 0.5 73.55 0.1L73.55 0.1 72.15-0.05 72.15-35.9 75.85-35.9 75.85-23.75Q79.65-25.5 83.2-25.5ZM80.45-2.85L80.45-2.85Q85.35-2.85 86.92-5.08 88.5-7.3 88.5-12.6 88.5-17.9 87.25-20.03 86-22.15 82.8-22.15L82.8-22.15Q79.9-22.15 76.85-21.05L76.85-21.05 75.85-20.7 75.85-3.1Q79.1-2.85 80.45-2.85ZM122.44 0L122.44 0 110.09 0 110.09-34.6 122.44-34.6Q130.89-34.6 133.64-27.9L133.64-27.9Q135.24-24.05 135.24-17.8L135.24-17.8Q135.24-4.75 128.74-1.35L128.74-1.35Q126.14 0 122.44 0ZM131.29-17.8L131.29-17.8Q131.29-27.75 126.84-30.2L126.84-30.2Q125.04-31.2 122.44-31.2L122.44-31.2 113.94-31.2 113.94-3.4 122.44-3.4Q131.29-3.4 131.29-17.8ZM158.69-3.1L158.69-3.1 160.14-3.25 160.24-0.3Q154.54 0.5 150.49 0.5L150.49 0.5Q145.09 0.5 142.84-2.63 140.59-5.75 140.59-12.35L140.59-12.35Q140.59-25.5 151.04-25.5L151.04-25.5Q156.09-25.5 158.59-22.68 161.09-19.85 161.09-13.8L161.09-13.8 160.89-10.95 144.39-10.95Q144.39-6.8 145.89-4.8 147.39-2.8 151.11-2.8 154.84-2.8 158.69-3.1ZM144.34-13.95L157.34-13.95Q157.34-18.55 155.86-20.45 154.39-22.35 151.06-22.35 147.74-22.35 146.06-20.35 144.39-18.35 144.34-13.95L144.34-13.95ZM174.79-22.15L174.79-22.15Q169.34-22.15 169.34-18.35L169.34-18.35Q169.34-16.6 170.59-15.88 171.84-15.15 176.29-14.38 180.74-13.6 182.59-12.2 184.44-10.8 184.44-6.95 184.44-3.1 181.96-1.3 179.49 0.5 174.74 0.5L174.74 0.5Q171.64 0.5 167.44-0.2L167.44-0.2 165.94-0.45 166.14-3.7Q171.84-2.85 174.74-2.85 177.64-2.85 179.16-3.78 180.69-4.7 180.69-6.88 180.69-9.05 179.39-9.83 178.09-10.6 173.69-11.3 169.29-12 167.44-13.35 165.59-14.7 165.59-18.35 165.59-22 168.16-23.75 170.74-25.5 174.59-25.5L174.59-25.5Q177.64-25.5 182.24-24.8L182.24-24.8 183.64-24.55 183.54-21.35Q177.99-22.15 174.79-22.15ZM193.93 0L190.18 0 190.18-25 193.93-25 193.93 0ZM193.93-30.65L190.18-30.65 190.18-35 193.93-35 193.93-30.65ZM210.78 11.75L210.78 11.75Q204.78 11.75 202.41 10.13 200.03 8.5 200.03 4.2L200.03 4.2Q200.03 2.15 200.93 0.88 201.83-0.4 203.98-2L203.98-2Q202.58-2.95 202.58-5.45L202.58-5.45Q202.58-6.3 203.83-8.6L203.83-8.6 204.28-9.4Q200.33-11.2 200.33-16.95L200.33-16.95Q200.33-25.5 209.68-25.5L209.68-25.5Q212.08-25.5 214.13-25L214.13-25 214.88-24.85 222.28-25.05 222.28-21.85 217.53-21.95Q219.18-20.3 219.18-16.95L219.18-16.95Q219.18-12.25 216.86-10.38 214.53-8.5 209.53-8.5L209.53-8.5Q208.18-8.5 207.08-8.7L207.08-8.7Q206.18-6.5 206.18-5.85L206.18-5.85Q206.18-4.3 207.13-3.93 208.08-3.55 212.88-3.55 217.68-3.55 219.78-2.05 221.88-0.55 221.88 3.8L221.88 3.8Q221.88 11.75 210.78 11.75ZM203.73 3.9L203.73 3.9Q203.73 6.55 205.21 7.58 206.68 8.6 210.66 8.6 214.63 8.6 216.36 7.5 218.08 6.4 218.08 3.83 218.08 1.25 216.83 0.5 215.58-0.25 211.93-0.25L211.93-0.25 206.53-0.5Q204.88 0.7 204.31 1.6 203.73 2.5 203.73 3.9ZM204.08-16.95Q204.08-14 205.41-12.75 206.73-11.5 209.78-11.5 212.83-11.5 214.13-12.75 215.43-14 215.43-16.98 215.43-19.95 214.13-21.2 212.83-22.45 209.78-22.45 206.73-22.45 205.41-21.18 204.08-19.9 204.08-16.95ZM230.58-20.3L230.58 0 226.83 0 226.83-25 230.53-25 230.53-23.25Q234.58-25.5 238.28-25.5L238.28-25.5Q243.28-25.5 245-22.8 246.73-20.1 246.73-13.2L246.73-13.2 246.73 0 243.03 0 243.03-13.1Q243.03-18.3 242-20.23 240.98-22.15 237.63-22.15L237.63-22.15Q236.03-22.15 234.25-21.68 232.48-21.2 231.53-20.75L231.53-20.75 230.58-20.3ZM261.53-22.15L261.53-22.15Q256.08-22.15 256.08-18.35L256.08-18.35Q256.08-16.6 257.33-15.88 258.58-15.15 263.03-14.38 267.48-13.6 269.33-12.2 271.18-10.8 271.18-6.95 271.18-3.1 268.7-1.3 266.23 0.5 261.48 0.5L261.48 0.5Q258.38 0.5 254.18-0.2L254.18-0.2 252.68-0.45 252.88-3.7Q258.58-2.85 261.48-2.85 264.38-2.85 265.9-3.78 267.43-4.7 267.43-6.88 267.43-9.05 266.13-9.83 264.83-10.6 260.43-11.3 256.03-12 254.18-13.35 252.33-14.7 252.33-18.35 252.33-22 254.9-23.75 257.48-25.5 261.33-25.5L261.33-25.5Q264.38-25.5 268.98-24.8L268.98-24.8 270.38-24.55 270.28-21.35Q264.73-22.15 261.53-22.15Z" opacity="1" transform="matrix(1,0,0,1,0,0)" fill="#fd15ee" class="slogan-text-1" data-fill-palette-color="secondary" id="text-1"></path></svg></g></svg></g></svg></g></svg></g><g><svg viewBox="0 0 170.48296683437763 127.14933587276515" height="127.14933587276515" width="170.48296683437763"><g><svg xmlns="http://www.w3.org/2000/svg" xmlns:xlink="http://www.w3.org/1999/xlink" version="1.1" x="0" y="0" viewBox="14 19 80 59.66547308918638" enable-background="new 0 0 108.121 99.421" xml:space="preserve" width="170.48296683437763" height="127.14933587276515" class="icon-icon-0" data-fill-palette-color="accent" id="icon-0"><g fill="#a630fd" data-fill-palette-color="accent"></g><g fill="#a630fd" data-fill-palette-color="accent"></g><g fill="#a630fd" data-fill-palette-color="accent"></g><g fill="#a630fd" data-fill-palette-color="accent"></g><path d="M92 19H16c-1.104 0-2 0.896-2 2v45c0 1.104 0.896 2 2 2h76c1.104 0 2-0.896 2-2V21C94 19.896 93.104 19 92 19zM90 60H18V23h72V60z" fill="#a630fd" data-fill-palette-color="accent"></path><rect x="45" y="66" width="18" height="12" fill="#a630fd" data-fill-palette-color="accent"></rect><rect x="38" y="76" width="32" height="3" fill="#a630fd" data-fill-palette-color="accent"></rect><g fill="#a630fd" data-fill-palette-color="accent"><path d="M46.324 50.387L31.583 43.84v-2.508l14.741-7.377v4.33l-9.04 4.126 9.04 3.674V50.387z" fill="#a630fd" data-fill-palette-color="accent"></path><path d="M60.569 31.359l-7.947 21.915h-5.045l7.947-21.915H60.569z" fill="#a630fd" data-fill-palette-color="accent"></path><path d="M61.677 46.085l9.041-3.674-9.041-4.126v-4.33l14.741 7.377v2.508l-14.741 6.546V46.085z" fill="#a630fd" data-fill-palette-color="accent"></path></g></svg></g></svg></g></svg></g><defs></defs></svg><rect width="395.52" height="85.24886218583235" fill="none" stroke="none" visibility="hidden"></rect></g></svg></g></svg>