<svg version="1.1" id="Layer_1" xmlns="http://www.w3.org/2000/svg" xmlns:xlink="http://www.w3.org/1999/xlink" x="0px" y="0px"
	 width="100%" viewBox="0 0 64 64" enable-background="new 0 0 64 64" xml:space="preserve">
<path fill="#000000" opacity="00000" stroke="none" 
	d="
M38.000004,65.000000 
	C25.357141,65.000000 13.214283,65.000000 1.035712,65.000000 
	C1.035712,43.732269 1.035712,22.464466 1.035712,1.098330 
	C22.225628,1.098330 43.451866,1.098330 64.839050,1.098330 
	C64.839050,22.332355 64.839050,43.666069 64.839050,65.000000 
	C56.132076,65.000000 47.316044,65.000000 38.000004,65.000000 
M21.504272,15.000000 
	C16.737364,15.000000 11.970456,15.000000 7.286874,15.000000 
	C7.286874,27.311432 7.286874,39.048706 7.286874,50.713867 
	C24.644403,50.713867 41.713547,50.713867 58.713005,50.713867 
	C58.713005,38.688328 58.713005,26.951052 58.713005,15.000000 
	C46.452618,15.000000 34.477959,15.000000 21.504272,15.000000 
z"/>
<path fill="#FFFFFF" opacity="1.000000" stroke="none" 
	d="
M22.003788,15.000000 
	C34.477959,15.000000 46.452618,15.000000 58.713005,15.000000 
	C58.713005,26.951052 58.713005,38.688328 58.713005,50.713867 
	C41.713547,50.713867 24.644403,50.713867 7.286874,50.713867 
	C7.286874,39.048706 7.286874,27.311432 7.286874,15.000000 
	C11.970456,15.000000 16.737364,15.000000 22.003788,15.000000 
M24.510406,47.000000 
	C34.614952,47.000000 44.719494,47.000000 54.824039,47.000000 
	C55.089905,46.500645 55.355774,46.001289 55.621643,45.501938 
	C49.726337,41.246944 43.831028,36.991951 37.810181,32.646343 
	C34.394505,36.965885 31.089390,36.167454 27.946135,32.679512 
	C22.385496,37.645466 15.427444,40.416492 9.783905,47.000000 
	C15.536420,47.000000 19.525997,47.000000 24.510406,47.000000 
M40.354649,24.969027 
	C42.840458,23.163343 45.326271,21.357660 48.219448,19.256065 
	C37.773582,19.256065 28.111370,19.256065 18.437719,19.256065 
	C18.467731,19.659061 18.422585,19.891146 18.497715,19.940636 
	C21.304941,21.789801 24.207014,23.506723 26.924135,25.478697 
	C34.577656,31.033304 32.331921,29.758253 40.354649,24.969027 
M11.000219,35.770691 
	C11.549262,36.196907 12.412465,37.101967 12.600806,36.978401 
	C16.124569,34.666527 19.568209,32.232529 23.198778,29.705709 
	C18.855230,26.922127 15.123104,24.530376 11.000013,21.888075 
	C11.000013,26.657478 11.000013,30.785320 11.000219,35.770691 
M49.041611,25.448755 
	C47.119011,26.833162 45.196415,28.217571 42.914463,29.860739 
	C46.822689,32.585545 50.670593,35.268291 54.858017,38.187756 
	C54.858017,32.375595 54.858017,27.440815 54.858017,22.094284 
	C52.933430,23.182013 51.300037,24.105164 49.041611,25.448755 
z"/>
<path fill="#000000" opacity="000000" stroke="none" 
	d="
M24.012991,47.000000 
	C19.525997,47.000000 15.536420,47.000000 9.783905,47.000000 
	C15.427444,40.416492 22.385496,37.645466 27.946135,32.679512 
	C31.089390,36.167454 34.394505,36.965885 37.810181,32.646343 
	C43.831028,36.991951 49.726337,41.246944 55.621643,45.501938 
	C55.355774,46.001289 55.089905,46.500645 54.824039,47.000000 
	C44.719494,47.000000 34.614952,47.000000 24.012991,47.000000 
z"/>
<path fill="#000000" opacity="000000" stroke="none" 
	d="
M39.980305,25.002621 
	C32.331921,29.758253 34.577656,31.033304 26.924135,25.478697 
	C24.207014,23.506723 21.304941,21.789801 18.497715,19.940636 
	C18.422585,19.891146 18.467731,19.659061 18.437719,19.256065 
	C28.111370,19.256065 37.773582,19.256065 48.219448,19.256065 
	C45.326271,21.357660 42.840458,23.163343 39.980305,25.002621 
z"/>
<path fill="#000000" opacity="000000" stroke="none" 
	d="
M11.000116,35.341927 
	C11.000013,30.785320 11.000013,26.657478 11.000013,21.888075 
	C15.123104,24.530376 18.855230,26.922127 23.198778,29.705709 
	C19.568209,32.232529 16.124569,34.666527 12.600806,36.978401 
	C12.412465,37.101967 11.549262,36.196907 11.000116,35.341927 
z"/>
<path fill="#000000" opacity="000000" stroke="none" 
	d="
M49.354130,25.238533 
	C51.300037,24.105164 52.933430,23.182013 54.858017,22.094284 
	C54.858017,27.440815 54.858017,32.375595 54.858017,38.187756 
	C50.670593,35.268291 46.822689,32.585545 42.914463,29.860739 
	C45.196415,28.217571 47.119011,26.833162 49.354130,25.238533 
z"/>
</svg>